<?xml version="1.0" encoding="UTF-8"?> <svg xmlns="http://www.w3.org/2000/svg" viewBox="0 0 80 50"><g id="Layer_2" data-name="Layer 2"><g id="Layer_1-2" data-name="Layer 1"><path d="M18.4,4.08A3.6,3.6,0,0,1,22,7.66V23a3.61,3.61,0,0,1-7.22,0V7.66A3.6,3.6,0,0,1,18.4,4.08M18.4,0a7.7,7.7,0,0,0-7.74,7.66V23a7.74,7.74,0,0,0,15.48,0V7.66A7.7,7.7,0,0,0,18.4,0Z" style="fill:currentColor"></path><path d="M36.36,4.08A3.6,3.6,0,0,1,40,7.66V23a3.62,3.62,0,0,1-7.23,0V7.66a3.6,3.6,0,0,1,3.62-3.58m0-4.08a7.7,7.7,0,0,0-7.74,7.66V23a7.74,7.74,0,0,0,15.47,0V7.66A7.7,7.7,0,0,0,36.36,0Z" style="fill:currentColor"></path><path d="M18.4,38.36a4,4,0,1,1-4,4,4,4,0,0,1,4-4m0-3.68a7.7,7.7,0,0,0-7.74,7.66h0A7.7,7.7,0,0,0,18.4,50h0a7.7,7.7,0,0,0,7.74-7.66h0a7.7,7.7,0,0,0-7.74-7.66Z" style="fill:currentColor"></path><path d="M36.36,38.36a4,4,0,1,1-4,4,4,4,0,0,1,4-4m0-3.68a7.7,7.7,0,0,0-7.74,7.66h0A7.7,7.7,0,0,0,36.36,50h0a7.7,7.7,0,0,0,7.73-7.66h0a7.7,7.7,0,0,0-7.73-7.66Z" style="fill:currentColor"></path><rect x="57.92" y="45.51" width="4.13" height="4.48" style="fill:currentColor"></rect><rect x="65.14" y="41.03" width="4.13" height="8.97" style="fill:currentColor"></rect><path d="M54.31,4.08a3.6,3.6,0,0,1,3.61,3.58V23a3.61,3.61,0,0,1-7.22,0V7.66a3.6,3.6,0,0,1,3.61-3.58m0-4.08a7.7,7.7,0,0,0-7.74,7.66V23a7.74,7.74,0,0,0,15.48,0V7.66A7.7,7.7,0,0,0,54.31,0Z" style="fill:currentColor"></path><path d="M72.26,4.08a3.6,3.6,0,0,1,3.61,3.58V23a3.61,3.61,0,0,1-7.22,0V7.66a3.6,3.6,0,0,1,3.61-3.58m0-4.08a7.7,7.7,0,0,0-7.74,7.66V23A7.74,7.74,0,0,0,80,23V7.66A7.7,7.7,0,0,0,72.26,0Z" style="fill:currentColor"></path><polygon points="55.34 50 46.68 50 49.69 38.79 46.61 38.79 46.61 34.7 54.85 34.7 51.84 45.51 55.34 45.51 55.34 50" style="fill:currentColor"></polygon><polygon points="7.43 30.49 3.3 30.49 3.3 4.56 0 4.56 0 0.48 7.43 0.48 7.43 30.49" style="fill:currentColor"></polygon><polygon points="7.22 49.79 3.1 49.79 3.1 34.57 9.64 34.57 9.64 38.65 7.22 38.65 7.22 49.79" style="fill:currentColor"></polygon><polygon points="76.76 50 72.64 50 72.64 34.78 79.18 34.78 79.18 38.86 76.76 38.86 76.76 50" style="fill:currentColor"></polygon><path d="M18.4,4.08A3.6,3.6,0,0,1,22,7.66V23a3.61,3.61,0,0,1-7.22,0V7.66A3.6,3.6,0,0,1,18.4,4.08M18.4,0a7.7,7.7,0,0,0-7.74,7.66V23a7.74,7.74,0,0,0,15.48,0V7.66A7.7,7.7,0,0,0,18.4,0Z" style="fill:currentColor"></path><path d="M36.36,4.08A3.6,3.6,0,0,1,40,7.66V23a3.62,3.62,0,0,1-7.23,0V7.66a3.6,3.6,0,0,1,3.62-3.58m0-4.08a7.7,7.7,0,0,0-7.74,7.66V23a7.74,7.74,0,0,0,15.47,0V7.66A7.7,7.7,0,0,0,36.36,0Z" style="fill:currentColor"></path><path d="M18.4,38.36a4,4,0,1,1-4,4,4,4,0,0,1,4-4m0-3.68a7.7,7.7,0,0,0-7.74,7.66h0A7.7,7.7,0,0,0,18.4,50h0a7.7,7.7,0,0,0,7.74-7.66h0a7.7,7.7,0,0,0-7.74-7.66Z" style="fill:currentColor"></path><path d="M36.36,38.36a4,4,0,1,1-4,4,4,4,0,0,1,4-4m0-3.68a7.7,7.7,0,0,0-7.74,7.66h0A7.7,7.7,0,0,0,36.36,50h0a7.7,7.7,0,0,0,7.73-7.66h0a7.7,7.7,0,0,0-7.73-7.66Z" style="fill:currentColor"></path><rect x="57.92" y="45.51" width="4.13" height="4.48" style="fill:currentColor"></rect><rect x="65.14" y="41.03" width="4.13" height="8.97" style="fill:currentColor"></rect><path d="M54.31,4.08a3.6,3.6,0,0,1,3.61,3.58V23a3.61,3.61,0,0,1-7.22,0V7.66a3.6,3.6,0,0,1,3.61-3.58m0-4.08a7.7,7.7,0,0,0-7.74,7.66V23a7.74,7.74,0,0,0,15.48,0V7.66A7.7,7.7,0,0,0,54.31,0Z" style="fill:currentColor"></path><path d="M72.26,4.08a3.6,3.6,0,0,1,3.61,3.58V23a3.61,3.61,0,0,1-7.22,0V7.66a3.6,3.6,0,0,1,3.61-3.58m0-4.08a7.7,7.7,0,0,0-7.74,7.66V23A7.74,7.74,0,0,0,80,23V7.66A7.7,7.7,0,0,0,72.26,0Z" style="fill:currentColor"></path><rect x="65.19" y="34.78" width="4.13" height="3.92" style="fill:currentColor"></rect><polygon points="55.34 50 46.68 50 49.69 38.79 46.61 38.79 46.61 34.7 54.85 34.7 51.84 45.51 55.34 45.51 55.34 50" style="fill:currentColor"></polygon><polygon points="7.43 30.49 3.3 30.49 3.3 4.56 0 4.56 0 0.48 7.43 0.48 7.43 30.49" style="fill:currentColor"></polygon><polygon points="7.22 49.79 3.1 49.79 3.1 34.57 9.64 34.57 9.64 38.65 7.22 38.65 7.22 49.79" style="fill:currentColor"></polygon><polygon points="76.76 50 72.64 50 72.64 34.78 79.18 34.78 79.18 38.86 76.76 38.86 76.76 50" style="fill:currentColor"></polygon></g></g></svg> 