<svg width="605" height="481" viewBox="0 0 605 481" fill="none" xmlns="http://www.w3.org/2000/svg">
<path d="M366.01 38.0058C366.01 20.7899 366.01 12.182 371.222 6.72486C371.421 6.51694 371.624 6.31359 371.832 6.11499C377.289 0.902344 385.897 0.902344 403.113 0.902344V0.902344C420.329 0.902344 428.937 0.902344 434.394 6.11499C434.602 6.31359 434.805 6.51694 435.004 6.72486C440.217 12.182 440.217 20.7899 440.217 38.0057V458.824H366.01V38.0058Z" fill="#009F61"/>
<path d="M265.076 181.373C265.076 164.157 265.076 155.549 270.289 150.092C270.487 149.884 270.691 149.681 270.899 149.482C276.356 144.27 284.964 144.27 302.18 144.27V144.27C319.395 144.27 328.003 144.27 333.46 149.482C333.668 149.681 333.872 149.884 334.07 150.092C339.283 155.549 339.283 164.157 339.283 181.373V458.825H265.076V181.373Z" fill="#F7F7F7"/>
<path d="M164.145 335.775C164.145 318.559 164.145 309.952 169.357 304.494C169.556 304.286 169.759 304.083 169.967 303.885C175.424 298.672 184.032 298.672 201.248 298.672V298.672C218.464 298.672 227.072 298.672 232.529 303.885C232.737 304.083 232.94 304.286 233.139 304.494C238.351 309.952 238.351 318.559 238.351 335.775V458.823H164.145V335.775Z" fill="#F7F7F7"/>
<path d="M63.2109 384.906C63.2109 367.69 63.2109 359.082 68.4236 353.625C68.6222 353.417 68.8255 353.214 69.0335 353.015C74.4906 347.803 83.0985 347.803 100.314 347.803V347.803C117.53 347.803 126.138 347.803 131.595 353.015C131.803 353.214 132.006 353.417 132.205 353.625C137.418 359.082 137.418 367.69 137.418 384.906V458.824H63.2109V384.906Z" fill="#FF782A"/>
<path d="M466.943 249.916C466.943 232.7 466.943 224.092 472.156 218.635C472.355 218.427 472.558 218.224 472.766 218.025C478.223 212.812 486.831 212.812 504.047 212.812V212.812C521.263 212.812 529.871 212.812 535.328 218.025C535.536 218.224 535.739 218.427 535.938 218.635C541.15 224.092 541.15 232.7 541.15 249.916V458.827H466.943V249.916Z" fill="#F7F7F7"/>
<path d="M602.182 480.903V478.824C602.182 469.396 602.182 464.682 599.253 461.753C596.324 458.824 591.61 458.824 582.182 458.824H22.1817C12.7536 458.824 8.03951 458.824 5.11057 461.753C2.18164 464.682 2.18164 469.396 2.18164 478.824V480.903" stroke="white" stroke-width="4" stroke-linejoin="round"/>
</svg>
