<svg viewBox="0 0 1400 567" fill="none" xmlns="http://www.w3.org/2000/svg">
<g opacity="0.3">
<path d="M610.386 55.2241L583.089 38.5416C581.767 37.7337 580.257 37.3822 578.797 37.4692L568.382 38.2458C564.202 38.5483 561.787 42.5 563.424 46.3572L567.484 55.98C568.054 57.3489 569.107 58.5229 570.396 59.3106L597.693 75.9931C600.898 77.9522 604.892 77.21 606.654 74.3278L613.009 63.9285C614.753 61.0761 613.591 57.1832 610.386 55.2241Z" stroke="#C4E3D7" stroke-width="5.04322" stroke-linecap="round" stroke-linejoin="round"/>
<path d="M557.799 63.8899L585.096 80.5725C586.418 81.3804 587.419 82.5639 588.008 83.9031L592.068 93.5259C593.705 97.3831 591.29 101.335 587.11 101.637L576.695 102.414C575.217 102.531 573.692 102.129 572.403 101.342L545.106 84.6589C541.9 82.6998 540.739 78.8069 542.5 75.9248L548.856 65.5254C550.599 62.673 554.593 61.9308 557.799 63.8899Z" stroke="#C4E3D7" stroke-width="5.04322" stroke-linecap="round" stroke-linejoin="round"/>
<path d="M574.978 74.3903L580.426 65.4766" stroke="#C4E3D7" stroke-width="5.04322" stroke-linecap="round" stroke-linejoin="round"/>
<path d="M556.818 104.101L562.266 95.1875" stroke="#C4E3D7" stroke-width="5.04322" stroke-linecap="round" stroke-linejoin="round"/>
<path d="M546.906 98.0449L566.735 110.163" stroke="#C4E3D7" stroke-width="5.04322" stroke-linecap="round" stroke-linejoin="round"/>
</g>
<g opacity="0.3">
<path d="M744.033 124.488L750.034 125.485L752.692 109.48" stroke="#C4E3D7" stroke-width="5.04322" stroke-linecap="round" stroke-linejoin="round"/>
<path d="M731.125 103.039L740.456 96.3652C745.121 93.0283 743.453 90.6955 741.784 88.3627C738.448 83.6971 736.115 85.3656 733.782 87.0341L724.451 93.708C722.118 95.3764 719.785 97.0449 723.122 101.711C726.459 106.376 728.792 104.708 731.125 103.039Z" stroke="#C4E3D7" stroke-width="5.04322" stroke-miterlimit="10" stroke-linecap="round" stroke-linejoin="round"/>
<path d="M741.822 88.4114C749.891 83.2752 755.839 83.3582 763.464 94.0191L773.475 108.016C780.149 117.347 781.153 123.681 769.489 132.023L755.492 142.034C743.828 150.377 738.158 147.38 731.484 138.048L721.474 124.052C713.865 113.414 715.692 107.735 723.16 101.759" stroke="#C4E3D7" stroke-width="5.04322" stroke-miterlimit="10" stroke-linecap="round" stroke-linejoin="round"/>
</g>
<g opacity="0.3">
<path d="M677.748 287.154L674.979 282.131" stroke="#C4E3D7" stroke-width="5.04322" stroke-linecap="round" stroke-linejoin="round"/>
<path d="M672.209 277.111L669.439 272.088" stroke="#C4E3D7" stroke-width="5.04322" stroke-linecap="round" stroke-linejoin="round"/>
<path d="M666.664 267.06L662.51 259.525C657.151 249.805 660.678 237.609 670.398 232.25L677.933 228.096" stroke="#C4E3D7" stroke-width="5.04322" stroke-linecap="round" stroke-linejoin="round"/>
<path d="M627.707 255.791L635.242 251.637C644.962 246.278 657.157 249.805 662.516 259.525L663.901 262.037L666.671 267.06" stroke="#C4E3D7" stroke-width="5.04322" stroke-linecap="round" stroke-linejoin="round"/>
<path d="M629.955 247.998L627.701 255.791L635.494 258.045" stroke="#C4E3D7" stroke-width="5.04322" stroke-linecap="round" stroke-linejoin="round"/>
<path d="M670.145 225.846L677.937 228.099L675.683 235.892" stroke="#C4E3D7" stroke-width="5.04322" stroke-linecap="round" stroke-linejoin="round"/>
</g>
<g opacity="0.3">
<path d="M71.6992 180.207L68.9297 175.184" stroke="#C4E3D7" stroke-width="5.04322" stroke-linecap="round" stroke-linejoin="round"/>
<path d="M66.1601 170.164L63.3906 165.141" stroke="#C4E3D7" stroke-width="5.04322" stroke-linecap="round" stroke-linejoin="round"/>
<path d="M60.615 160.112L56.4608 152.577C51.1018 142.857 54.629 130.662 64.3489 125.303L71.8838 121.149" stroke="#C4E3D7" stroke-width="5.04322" stroke-linecap="round" stroke-linejoin="round"/>
<path d="M21.6582 148.844L29.1931 144.69C38.913 139.331 51.1087 142.858 56.4676 152.578L57.8523 155.089L60.6218 160.113" stroke="#C4E3D7" stroke-width="5.04322" stroke-linecap="round" stroke-linejoin="round"/>
<path d="M23.9061 141.051L21.6523 148.844L29.445 151.097" stroke="#C4E3D7" stroke-width="5.04322" stroke-linecap="round" stroke-linejoin="round"/>
<path d="M64.0957 118.898L71.8884 121.152L69.6347 128.945" stroke="#C4E3D7" stroke-width="5.04322" stroke-linecap="round" stroke-linejoin="round"/>
</g>
<g opacity="0.3">
<path d="M862.574 273.945L852.173 269.104L837.02 271.414C834.771 271.76 833.026 269.461 833.994 267.38L836.572 261.842C828.771 258.211 825.992 250.59 829.622 242.79L836.884 227.188C840.515 219.388 848.136 216.608 855.936 220.239L881.938 232.342C889.739 235.973 892.519 243.594 888.888 251.394L881.626 266.995C877.995 274.796 870.374 277.576 862.574 273.945Z" stroke="#C4E3D7" stroke-width="5.04322" stroke-miterlimit="10" stroke-linecap="round" stroke-linejoin="round"/>
<path d="M858.134 249.505L858.388 248.959C859.211 247.191 860.739 246.763 862.182 246.517C863.587 246.285 865.088 245.846 865.887 244.129C867 241.737 865.972 238.917 863.58 237.804C861.188 236.69 858.368 237.719 857.255 240.111" stroke="#C4E3D7" stroke-width="5.04322" stroke-linecap="round" stroke-linejoin="round"/>
<path d="M855.226 255.712L855.25 255.723" stroke="#C4E3D7" stroke-width="5.04322" stroke-linecap="round" stroke-linejoin="round"/>
</g>
<g opacity="0.3">
<path d="M196.852 268.664L186.451 263.823L171.861 264.924C169.696 265.089 167.861 262.982 168.677 261.229L170.85 256.561C163.049 252.93 159.889 246.126 162.949 239.552L169.07 226.403C172.13 219.828 179.37 217.866 187.171 221.497L213.173 233.6C220.973 237.23 224.134 244.034 221.073 250.608L214.953 263.758C211.893 270.332 204.652 272.295 196.852 268.664Z" stroke="#C4E3D7" stroke-width="5.04322" stroke-miterlimit="10" stroke-linecap="round" stroke-linejoin="round"/>
<path d="M191.07 247.111L191.284 246.651C191.978 245.161 193.437 244.88 194.825 244.753C196.177 244.635 197.61 244.343 198.283 242.896C199.221 240.88 198.052 238.363 195.66 237.249C193.268 236.136 190.589 236.862 189.65 238.878" stroke="#C4E3D7" stroke-width="5.04322" stroke-linecap="round" stroke-linejoin="round"/>
<path d="M188.616 252.346L188.64 252.357" stroke="#C4E3D7" stroke-width="5.04322" stroke-linecap="round" stroke-linejoin="round"/>
</g>
<g opacity="0.3">
<path d="M610.831 400.89L600.831 399.521L603.855 377.428C604.56 372.273 601.758 370.827 597.637 374.201L569.529 397.238C566.078 400.048 566.975 402.89 571.538 403.515L581.537 404.883L578.514 426.977C577.808 432.132 580.61 433.578 584.731 430.203L612.84 407.167C616.262 404.322 615.361 401.51 610.831 400.89Z" stroke="#C4E3D7" stroke-width="5.04322" stroke-miterlimit="10" stroke-linecap="round" stroke-linejoin="round"/>
</g>
<g opacity="0.3">
<path d="M734.257 492.71C746.553 495.418 758.716 487.644 761.424 475.348C764.131 463.052 756.358 450.889 744.061 448.181C731.765 445.474 719.602 453.247 716.895 465.544C714.187 477.84 721.961 490.003 734.257 492.71Z" stroke="#C4E3D7" stroke-width="5.04322" stroke-linecap="round" stroke-linejoin="round"/>
<path d="M762.735 507.336L756.457 497.514" stroke="#C4E3D7" stroke-width="5.04322" stroke-linecap="round" stroke-linejoin="round"/>
</g>
<g opacity="0.3">
<path d="M1074.91 202.361C1082.35 212.518 1096.62 214.721 1106.78 207.28C1116.93 199.839 1119.14 185.573 1111.7 175.416C1104.25 165.259 1089.99 163.057 1079.83 170.498C1069.67 177.939 1067.47 192.204 1074.91 202.361Z" stroke="#C4E3D7" stroke-width="5.04322" stroke-linecap="round" stroke-linejoin="round"/>
<path d="M1086.63 232.159L1088.4 220.639" stroke="#C4E3D7" stroke-width="5.04322" stroke-linecap="round" stroke-linejoin="round"/>
</g>
<g opacity="0.3">
<path d="M472.806 307.208C471.792 307.411 470.202 307.185 469.285 306.707C461.451 302.724 444.721 288.377 447.551 268.501C448.8 259.727 456.881 253.635 465.598 254.876C470.766 255.612 474.981 258.762 477.299 263.032C480.717 259.578 485.672 257.734 490.812 258.466C499.529 259.707 505.588 267.812 504.339 276.586C501.51 296.462 481.441 305.569 472.806 307.208Z" stroke="#C4E3D7" stroke-width="5.04322" stroke-linecap="round" stroke-linejoin="round"/>
</g>
<g opacity="0.3">
<path d="M1016.62 359.212C1016.01 360.051 1014.69 360.966 1013.7 361.239C1005.24 363.647 983.222 364.507 971.779 348.011C966.727 340.729 968.508 330.767 975.743 325.749C980.032 322.774 985.265 322.216 989.868 323.769C990.025 318.913 992.404 314.191 996.67 311.233C1003.9 306.214 1013.86 308.035 1018.91 315.317C1030.35 331.813 1021.83 352.138 1016.62 359.212Z" stroke="#C4E3D7" stroke-width="5.04322" stroke-linecap="round" stroke-linejoin="round"/>
</g>
<g opacity="0.3">
<path d="M442.523 71.1685L451.43 37.7167C452.316 34.391 450.257 31.2011 446.885 30.6L446.719 30.5557C440.766 29.5048 431.135 30.116 425.375 31.9064L424.823 32.0858C423.886 32.3707 422.556 32.0164 421.885 31.3035L421.303 30.7033C417.189 26.3133 409.158 21.0287 403.463 19.0077C400.239 17.8523 396.886 19.6308 396.008 22.9289L387.093 56.4083C386.385 59.0689 387.882 62.1389 390.454 63.18L391.228 63.5049C397.028 65.9101 405.501 71.431 410.047 75.758L410.144 75.843C410.781 76.458 411.973 76.7753 412.804 76.5515C418.908 75.0307 429.039 74.4341 435.295 75.2392L436.239 75.3719C438.988 75.7478 441.814 73.8291 442.523 71.1685Z" stroke="#C4E3D7" stroke-width="5.04322" stroke-linecap="round" stroke-linejoin="round"/>
<path d="M423.109 32.6035L412.039 74.1757" stroke="#C4E3D7" stroke-width="5.04322" stroke-linecap="round" stroke-linejoin="round"/>
<path d="M409.121 37.7836L402.885 36.123" stroke="#C4E3D7" stroke-width="5.04322" stroke-linecap="round" stroke-linejoin="round"/>
<path d="M408.978 46.6476L400.664 44.4336" stroke="#C4E3D7" stroke-width="5.04322" stroke-linecap="round" stroke-linejoin="round"/>
</g>
<g opacity="0.3">
<path d="M875.369 474.012L863.443 469.621C860.634 468.586 857.49 470.039 856.455 472.848L850.814 488.17L867.847 494.441L875.369 474.012Z" stroke="#C4E3D7" stroke-width="4.78515" stroke-miterlimit="10" stroke-linecap="round" stroke-linejoin="round"/>
<path d="M891.035 468.178L884.217 465.668C881.408 464.633 878.263 466.085 877.229 468.894L867.826 494.431L884.859 500.703L894.262 475.166C895.296 472.357 893.87 469.222 891.035 468.178Z" stroke="#C4E3D7" stroke-width="4.78515" stroke-miterlimit="10" stroke-linecap="round" stroke-linejoin="round"/>
<path d="M901.482 492.325L889.557 487.934L884.855 500.702L901.888 506.974L904.709 499.313C905.743 496.504 904.291 493.359 901.482 492.325Z" stroke="#C4E3D7" stroke-width="4.78515" stroke-miterlimit="10" stroke-linecap="round" stroke-linejoin="round"/>
<path d="M896.418 447.172L896.775 450.377C896.813 450.826 897.166 451.362 897.556 451.563L899.857 452.875C901.321 453.704 901.281 454.994 899.753 455.678L897.132 456.888C896.678 457.098 896.274 457.645 896.216 458.117L895.887 460.664C895.635 462.688 894.376 463.036 893.099 461.464L891.299 459.264C890.984 458.858 890.295 458.604 889.792 458.709L886.995 459.217C885.004 459.585 884.271 458.503 885.392 456.799L886.793 454.647C887.055 454.251 887.111 453.546 886.892 453.118L885.698 450.532C884.988 448.995 885.759 448.003 887.437 448.33L890.039 448.825C890.476 448.898 891.092 448.72 891.403 448.428L893.753 446.219C895.039 445.011 896.214 445.443 896.418 447.172Z" stroke="#C4E3D7" stroke-width="4.78515" stroke-linecap="round" stroke-linejoin="round"/>
</g>
<g opacity="0.3">
<path d="M342.982 188.716L332.212 195.462C329.675 197.051 328.9 200.427 330.489 202.964L339.156 216.801L354.539 207.166L342.982 188.716Z" stroke="#C4E3D7" stroke-width="4.78515" stroke-miterlimit="10" stroke-linecap="round" stroke-linejoin="round"/>
<path d="M347.952 172.76L341.794 176.617C339.257 178.206 338.482 181.581 340.071 184.118L354.517 207.18L369.899 197.545L355.453 174.483C353.864 171.946 350.511 171.156 347.952 172.76Z" stroke="#C4E3D7" stroke-width="4.78515" stroke-miterlimit="10" stroke-linecap="round" stroke-linejoin="round"/>
<path d="M373.446 179.265L362.676 186.012L369.899 197.543L385.281 187.907L380.947 180.989C379.358 178.452 375.983 177.676 373.446 179.265Z" stroke="#C4E3D7" stroke-width="4.78515" stroke-miterlimit="10" stroke-linecap="round" stroke-linejoin="round"/>
<path d="M334.63 155.641L337.384 157.32C337.762 157.565 338.403 157.613 338.8 157.428L341.246 156.411C342.797 155.76 343.793 156.581 343.399 158.208L342.753 161.021C342.641 161.509 342.826 162.164 343.164 162.498L344.977 164.316C346.424 165.754 345.929 166.963 343.904 167.012L341.063 167.089C340.55 167.09 339.927 167.48 339.702 167.942L338.392 170.464C337.465 172.265 336.162 172.183 335.499 170.254L334.654 167.828C334.501 167.379 333.978 166.903 333.505 166.814L330.73 166.177C329.079 165.798 328.766 164.581 330.052 163.454L332.035 161.699C332.36 161.398 332.596 160.801 332.555 160.377L332.246 157.167C332.077 155.41 333.138 154.746 334.63 155.641Z" stroke="#C4E3D7" stroke-width="4.78515" stroke-linecap="round" stroke-linejoin="round"/>
</g>
<g opacity="0.3">
<path d="M917.945 51.9258L899.232 53.1087C893.232 53.4881 889.608 59.8885 892.369 65.2286L900.981 81.8849C902.52 84.8843 906.56 87.1719 909.924 86.9485L928.569 85.727C934.546 85.3347 938.158 78.9571 935.419 73.6298L926.875 57.012C925.349 53.9899 921.309 51.7023 917.945 51.9258Z" stroke="#C4E3D7" stroke-width="4.58635" stroke-linecap="round" stroke-linejoin="round"/>
<path d="M894.355 70.1906L888.305 80.8223C886.672 83.7047 887.149 88.0509 889.358 90.5009L895.236 97.0064C896.253 98.1218 898.319 99.2913 899.821 99.6025L908.423 101.296C911.661 101.931 915.633 100.103 917.265 97.221L923.228 86.6899" stroke="#C4E3D7" stroke-width="4.58635" stroke-linecap="round" stroke-linejoin="round"/>
<path d="M927.684 94.8209L935.395 81.2031" stroke="#C4E3D7" stroke-width="4.58635" stroke-linecap="round" stroke-linejoin="round"/>
</g>
<g opacity="0.3">
<path d="M1095.09 22.4929L1080.68 46.3922C1077.87 51.0591 1080.03 54.9739 1085.45 55.0935L1093.21 55.2818C1094.89 55.3247 1097.02 56.5097 1097.93 57.9576L1106.93 72.1914C1107.84 73.6149 1109.96 74.8244 1111.64 74.8672L1125.95 75.1873C1127.78 75.2157 1130.06 73.981 1131.01 72.409L1145.42 48.5097C1148.23 43.8428 1146.07 39.9279 1140.65 39.8084L1132.89 39.62C1131.21 39.5772 1129.08 38.3922 1128.17 36.9443L1119.16 22.735C1118.24 21.3116 1116.12 20.1021 1114.44 20.0592L1100.13 19.7391C1098.29 19.6959 1096.03 20.9455 1095.09 22.4929Z" stroke="#C4E3D7" stroke-width="5.04322" stroke-linecap="round" stroke-linejoin="round"/>
<path d="M1116.09 22.502L1096.84 54.4332" stroke="#C4E3D7" stroke-width="5.04322" stroke-linecap="round" stroke-linejoin="round"/>
<path d="M1129.82 39.5469L1110.01 72.4115" stroke="#C4E3D7" stroke-width="5.04322" stroke-linecap="round" stroke-linejoin="round"/>
</g>
<g opacity="0.3">
<path d="M1326.9 80.2239L1348.04 71.3223C1358.67 66.8492 1358.78 61.7922 1357.16 56.3774L1350.24 34.3955C1348.24 27.6452 1344.17 23.1637 1332.89 27.9149L1306.45 39.0419C1295.16 43.7931 1295.53 49.8324 1298.96 55.9819L1309.84 76.2947C1312.58 81.2422 1316.27 84.6969 1326.9 80.2239Z" stroke="#C4E3D7" stroke-width="5.04322" stroke-miterlimit="10" stroke-linecap="round" stroke-linejoin="round"/>
<path d="M1309.09 37.9311L1308.2 35.8164C1306.23 31.1375 1304.64 27.3574 1313.1 23.7968L1317.33 22.0165C1325.79 18.4558 1327.38 22.2359 1329.35 26.9148L1330.24 29.0295" stroke="#C4E3D7" stroke-width="5.04322" stroke-miterlimit="10" stroke-linecap="round" stroke-linejoin="round"/>
<path d="M1332.75 49.7551L1333.86 52.3985C1333.87 52.425 1333.87 52.425 1333.88 52.4514C1335.09 55.3327 1336.06 57.6965 1330.8 59.9108C1325.56 62.1139 1324.53 59.81 1323.32 56.9286L1322.17 54.2059C1321.06 51.5625 1321.06 51.5625 1323.7 50.4498L1328.99 48.2244C1331.63 47.1117 1331.63 47.1117 1332.75 49.7551Z" stroke="#C4E3D7" stroke-width="5.04322" stroke-miterlimit="10" stroke-linecap="round" stroke-linejoin="round"/>
<path d="M1350.74 35.9546C1346.51 42.9659 1340.64 48.5469 1333.88 52.4499" stroke="#C4E3D7" stroke-width="5.04322" stroke-miterlimit="10" stroke-linecap="round" stroke-linejoin="round"/>
<path d="M1300.74 57.8457C1308.4 59.413 1316.15 59.0451 1323.32 56.9298" stroke="#C4E3D7" stroke-width="5.04322" stroke-miterlimit="10" stroke-linecap="round" stroke-linejoin="round"/>
</g>
<g opacity="0.3">
<path d="M1340.34 203.861L1321.14 265.121" stroke="#C4E3D7" stroke-width="5.64432" stroke-miterlimit="10" stroke-linecap="round" stroke-linejoin="round"/>
<path d="M1338.43 209.986L1372.73 220.737C1381 223.329 1381.4 228.5 1373.76 232.496L1368.93 235.019C1365.71 236.702 1364.46 240.684 1366.24 243.596L1368.76 248.423C1372.76 256.067 1369.18 259.989 1361.21 257.494L1326.91 246.742" stroke="#C4E3D7" stroke-width="5.64432" stroke-miterlimit="10" stroke-linecap="round" stroke-linejoin="round"/>
</g>
<g opacity="0.3">
<path d="M422.035 407.59L402.837 468.85" stroke="#C4E3D7" stroke-width="5.64432" stroke-miterlimit="10" stroke-linecap="round" stroke-linejoin="round"/>
<path d="M420.119 413.715L454.425 424.466C462.695 427.058 463.093 432.228 455.449 436.224L450.622 438.748C447.403 440.43 446.155 444.412 447.934 447.324L450.458 452.152C454.453 459.795 450.87 463.718 442.906 461.222L408.6 450.471" stroke="#C4E3D7" stroke-width="5.64432" stroke-miterlimit="10" stroke-linecap="round" stroke-linejoin="round"/>
</g>
<g opacity="0.3">
<path d="M1347.85 455.491L1345.99 449.852" stroke="#C4E3D7" stroke-width="5.04322" stroke-linecap="round"/>
<path d="M1361.8 450.904L1358.09 439.625" stroke="#C4E3D7" stroke-width="5.04322" stroke-linecap="round"/>
<path d="M1375.75 446.304L1370.17 429.359" stroke="#C4E3D7" stroke-width="5.04322" stroke-linecap="round"/>
<path d="M1364.72 412.802L1363.95 414.686C1359.67 425.091 1352.25 433.906 1342.72 439.91" stroke="#C4E3D7" stroke-width="5.04322" stroke-linecap="round"/>
<path d="M1356.74 415.43L1364.72 412.802L1367.34 420.757" stroke="#C4E3D7" stroke-width="5.04322" stroke-linecap="round" stroke-linejoin="round"/>
<path d="M1357.08 464.082L1373.43 458.702C1387.05 454.218 1390.7 446.976 1386.22 433.355L1380.84 417.009C1376.36 403.388 1369.12 399.733 1355.49 404.216L1339.15 409.596C1325.53 414.08 1321.87 421.322 1326.35 434.943L1331.74 451.289C1336.22 464.91 1343.46 468.565 1357.08 464.082Z" stroke="#C4E3D7" stroke-width="5.04322" stroke-linecap="round" stroke-linejoin="round"/>
</g>
<g opacity="0.3">
<path d="M87.8268 509.133L85.9707 503.494" stroke="#C4E3D7" stroke-width="5.04322" stroke-linecap="round"/>
<path d="M101.779 504.546L98.0664 493.268" stroke="#C4E3D7" stroke-width="5.04322" stroke-linecap="round"/>
<path d="M115.726 499.947L110.148 483.002" stroke="#C4E3D7" stroke-width="5.04322" stroke-linecap="round"/>
<path d="M104.694 466.445L103.925 468.328C99.6498 478.733 92.2247 487.548 82.6971 493.553" stroke="#C4E3D7" stroke-width="5.04322" stroke-linecap="round"/>
<path d="M96.7148 469.072L104.697 466.445L107.315 474.4" stroke="#C4E3D7" stroke-width="5.04322" stroke-linecap="round" stroke-linejoin="round"/>
<path d="M97.0583 517.724L113.404 512.344C127.025 507.861 130.681 500.619 126.197 486.998L120.817 470.652C116.334 457.03 109.092 453.375 95.4703 457.859L79.1246 463.239C65.5032 467.722 61.8481 474.964 66.3315 488.586L71.7116 504.931C76.195 518.553 83.4369 522.208 97.0583 517.724Z" stroke="#C4E3D7" stroke-width="5.04322" stroke-linecap="round" stroke-linejoin="round"/>
</g>
<g opacity="0.3">
<path d="M1171.17 518.772C1166.95 509.501 1178.81 500.408 1186.65 506.904C1191.26 510.704 1191.33 516.87 1190.64 521.26C1190.14 524.466 1187.19 526.695 1183.98 526.373C1179.58 525.875 1173.64 524.212 1171.17 518.772Z" stroke="#C4E3D7" stroke-width="5.04322"/>
<path d="M1221.7 523.393C1217.48 514.122 1229.41 504.977 1237.27 511.455C1241.88 515.255 1241.95 521.421 1241.24 525.828C1240.74 529.035 1237.76 531.281 1234.55 530.959C1230.11 530.496 1224.18 528.833 1221.7 523.393Z" stroke="#C4E3D7" stroke-width="5.04322"/>
<path d="M1194.47 502.35L1200.57 497.673C1204.78 494.444 1210.73 498.155 1209.7 503.358L1203.71 533.211C1202.66 538.391 1208.61 542.102 1212.8 538.89L1218.9 534.213" stroke="#C4E3D7" stroke-width="5.04322" stroke-linecap="round" stroke-linejoin="round"/>
<path d="M1180.52 514.858L1180.54 514.838" stroke="#C4E3D7" stroke-width="5.04322" stroke-linecap="round" stroke-linejoin="round"/>
<path d="M1231.04 519.479L1231.07 519.459" stroke="#C4E3D7" stroke-width="5.04322" stroke-linecap="round" stroke-linejoin="round"/>
</g>
<g opacity="0.3">
<path d="M226.913 408.809C222.695 399.538 234.553 390.445 242.39 396.941C247.002 400.741 247.068 406.907 246.386 411.297C245.882 414.503 242.928 416.732 239.718 416.41C235.324 415.912 229.387 414.249 226.913 408.809Z" stroke="#C4E3D7" stroke-width="5.04322"/>
<path d="M277.444 413.43C273.227 404.159 285.152 395.014 293.012 401.492C297.624 405.292 297.69 411.458 296.986 415.865C296.481 419.072 293.505 421.318 290.295 420.997C285.855 420.534 279.918 418.87 277.444 413.43Z" stroke="#C4E3D7" stroke-width="5.04322"/>
<path d="M250.21 392.387L256.309 387.71C260.52 384.481 266.474 388.192 265.439 393.395L259.454 423.248C258.403 428.428 264.357 432.139 268.544 428.927L274.644 424.25" stroke="#C4E3D7" stroke-width="5.04322" stroke-linecap="round" stroke-linejoin="round"/>
<path d="M236.258 404.895L236.284 404.875" stroke="#C4E3D7" stroke-width="5.04322" stroke-linecap="round" stroke-linejoin="round"/>
<path d="M286.785 409.516L286.812 409.496" stroke="#C4E3D7" stroke-width="5.04322" stroke-linecap="round" stroke-linejoin="round"/>
</g>
<g opacity="0.3">
<path d="M1058.68 476.091L1071.57 461.409C1072.87 459.936 1072.71 457.663 1071.24 456.392L1064.19 450.224C1062.72 448.925 1060.45 449.085 1059.18 450.552L1046.29 465.233L1058.68 476.091Z" stroke="#C4E3D7" stroke-width="5.04322" stroke-linecap="round" stroke-linejoin="round"/>
<path d="M1047.6 466.312L1036.72 478.707L1046.63 487.41L1057.51 475.015L1047.6 466.312Z" stroke="#C4E3D7" stroke-width="5.04322" stroke-linecap="round" stroke-linejoin="round"/>
<path d="M1036.97 497.101L1045.97 486.869L1037.29 479.266L1028.29 489.498C1027.25 490.697 1027.37 492.504 1028.57 493.55L1032.94 497.372C1034.11 498.397 1035.91 498.272 1036.97 497.101Z" stroke="#C4E3D7" stroke-width="5.04322" stroke-linecap="round" stroke-linejoin="round"/>
<path d="M1051.48 482.252L1046.27 512.726" stroke="#C4E3D7" stroke-width="5.04322" stroke-linecap="round" stroke-linejoin="round"/>
<path d="M1051.34 482.289L1070.88 506.172" stroke="#C4E3D7" stroke-width="5.04322" stroke-linecap="round" stroke-linejoin="round"/>
</g>
<g opacity="0.3">
<path d="M202.833 57.5737L185.642 30.6387C183.186 26.7909 180.034 26.0949 176.186 28.5508L168.491 33.4626C164.643 35.9185 163.947 39.0704 166.403 42.9183L183.594 69.8533C186.05 73.7011 189.202 74.3971 193.05 71.9412L200.745 67.0293C204.593 64.5734 205.289 61.4216 202.833 57.5737Z" stroke="#C4E3D7" stroke-width="4.01341" stroke-linecap="round"/>
<path d="M167.631 44.8438L177.25 38.704" stroke="#C4E3D7" stroke-width="4.01341" stroke-linecap="round"/>
<path d="M182.365 67.9297L190.061 63.0179" stroke="#C4E3D7" stroke-width="4.01341" stroke-linecap="round"/>
<path d="M177.391 60.1367L187.072 54.0931" stroke="#C4E3D7" stroke-width="4.01341" stroke-linecap="round"/>
<path d="M172.541 52.5391L178.313 48.8552" stroke="#C4E3D7" stroke-width="4.01341" stroke-linecap="round"/>
<path d="M151.21 44.4922C148.074 46.4938 147.149 50.6858 149.138 53.8025L165.052 78.7366C165.605 79.6024 166.806 80.6774 167.727 81.1453L170.975 82.7549C174.711 84.6212 177.693 82.7178 177.574 78.543L177.481 74.9195C177.445 73.8868 176.975 72.3452 176.423 71.4794L160.509 46.5453C158.519 43.4286 154.327 42.5029 151.21 44.4922Z" stroke="#C4E3D7" stroke-width="4.01341" stroke-linecap="round"/>
<path d="M163.027 50.4889L151.656 57.7461" stroke="#C4E3D7" stroke-width="4.01341" stroke-linecap="round"/>
</g>
<g opacity="0.3">
<path d="M1193.24 350.824L1176.04 323.889C1173.59 320.041 1170.44 319.345 1166.59 321.801L1158.89 326.713C1155.05 329.169 1154.35 332.32 1156.8 336.168L1174 363.103C1176.45 366.951 1179.6 367.647 1183.45 365.191L1191.15 360.279C1195 357.823 1195.69 354.672 1193.24 350.824Z" stroke="#C4E3D7" stroke-width="4.01341" stroke-linecap="round"/>
<path d="M1158.03 338.094L1167.65 331.954" stroke="#C4E3D7" stroke-width="4.01341" stroke-linecap="round"/>
<path d="M1172.77 361.18L1180.46 356.268" stroke="#C4E3D7" stroke-width="4.01341" stroke-linecap="round"/>
<path d="M1167.79 353.387L1177.47 347.343" stroke="#C4E3D7" stroke-width="4.01341" stroke-linecap="round"/>
<path d="M1162.94 345.789L1168.72 342.105" stroke="#C4E3D7" stroke-width="4.01341" stroke-linecap="round"/>
<path d="M1141.61 337.742C1138.48 339.744 1137.55 343.936 1139.54 347.053L1155.45 371.987C1156.01 372.852 1157.21 373.927 1158.13 374.395L1161.38 376.005C1165.11 377.871 1168.1 375.968 1167.98 371.793L1167.88 368.17C1167.85 367.137 1167.38 365.595 1166.83 364.729L1150.91 339.795C1148.92 336.679 1144.73 335.753 1141.61 337.742Z" stroke="#C4E3D7" stroke-width="4.01341" stroke-linecap="round"/>
<path d="M1153.43 343.739L1142.06 350.996" stroke="#C4E3D7" stroke-width="4.01341" stroke-linecap="round"/>
</g>
<g opacity="0.3">
<path d="M37.5294 320.192L45.1642 327.367C46.2145 328.37 48.2457 328.956 49.6775 328.684L58.1344 327.074C63.5435 326.046 66.1041 329.302 63.7747 334.302L59.8603 342.779C59.1974 344.214 59.3679 346.449 60.2262 347.779L64.8239 354.795C68.4582 360.351 66.1001 363.886 59.5607 362.691L50.4629 361.019C48.8195 360.717 46.596 361.535 45.5164 362.841L39.6748 370.013C35.4968 375.154 31.3753 373.977 30.5482 367.416L29.498 359.093C29.2892 357.525 27.9696 355.713 26.534 355.05L18.0571 351.135C13.0667 348.831 12.8795 344.701 17.6631 341.975L25.1449 337.717C26.3862 337.004 27.5527 335.242 27.7016 333.797L28.8605 323.384C29.5019 317.729 33.3991 316.294 37.5294 320.192Z" stroke="#C4E3D7" stroke-width="4.68123" stroke-linecap="round" stroke-linejoin="round"/>
</g>
</svg>
