<svg  viewBox="0 0 124 25" fill="none" xmlns="http://www.w3.org/2000/svg">
<path fill-rule="evenodd" clip-rule="evenodd" d="M85.5473 19.8449C87.6295 19.8449 89.3176 18.1569 89.3176 16.0746C89.3176 13.9923 87.6295 12.3043 85.5473 12.3043C83.465 12.3043 81.777 13.9923 81.777 16.0746C81.777 18.1569 83.465 19.8449 85.5473 19.8449ZM85.5473 24.243C90.0585 24.243 93.7156 20.5859 93.7156 16.0746C93.7156 11.5633 90.0585 7.90625 85.5473 7.90625C81.036 7.90625 77.3789 11.5633 77.3789 16.0746C77.3789 20.5859 81.036 24.243 85.5473 24.243Z" fill="currentColor"/>
<path fill-rule="evenodd" clip-rule="evenodd" d="M103.071 19.8449C105.153 19.8449 106.841 18.1569 106.841 16.0746C106.841 13.9923 105.153 12.3043 103.071 12.3043C100.988 12.3043 99.3004 13.9923 99.3004 16.0746C99.3004 18.1569 100.988 19.8449 103.071 19.8449ZM103.071 24.243C107.582 24.243 111.239 20.5859 111.239 16.0746C111.239 11.5633 107.582 7.90625 103.071 7.90625C98.5594 7.90625 94.9023 11.5633 94.9023 16.0746C94.9023 20.5859 98.5594 24.243 103.071 24.243Z" fill="currentColor"/>
<path fill-rule="evenodd" clip-rule="evenodd" d="M76.5492 8.64062H69.1191V24.1208H73.5172V13.4196H76.549V13.0387H76.5492V8.64062Z" fill="currentColor"/>
<path fill-rule="evenodd" clip-rule="evenodd" d="M112.123 8.65625H119.227V8.66276L123.386 8.73522L118.314 19.4058H122.737V24.1712L115.475 24.0988L111.203 24.0986L116.278 13.4218H112.123V8.65625Z" fill="currentColor"/>
<path fill-rule="evenodd" clip-rule="evenodd" d="M18.0858 17.7839V6.74097C18.0858 5.59372 17.1558 4.66369 16.0085 4.66369C14.8613 4.66369 13.9313 5.59372 13.9313 6.74096V17.7839C13.9313 18.9311 14.8613 19.8611 16.0085 19.8611C17.1558 19.8611 18.0858 18.9311 18.0858 17.7839ZM16.0085 0.265625C12.4323 0.265625 9.5332 3.16473 9.5332 6.74096V17.7839C9.5332 21.3601 12.4323 24.2592 16.0085 24.2592C19.5848 24.2592 22.4839 21.3601 22.4839 17.7839V6.74097C22.4839 3.16473 19.5848 0.265625 16.0085 0.265625Z" fill="currentColor"/>
<path fill-rule="evenodd" clip-rule="evenodd" d="M32.9804 17.7839V6.74097C32.9804 5.59372 32.0503 4.66369 30.9031 4.66369C29.7558 4.66369 28.8258 5.59372 28.8258 6.74096V17.7839C28.8258 18.9311 29.7558 19.8611 30.9031 19.8611C32.0503 19.8611 32.9804 18.9311 32.9804 17.7839ZM30.9031 0.265625C27.3268 0.265625 24.4277 3.16473 24.4277 6.74096V17.7839C24.4277 21.3601 27.3268 24.2592 30.9031 24.2592C34.4793 24.2592 37.3784 21.3601 37.3784 17.7839V6.74097C37.3784 3.16473 34.4793 0.265625 30.9031 0.265625Z" fill="currentColor"/>
<path fill-rule="evenodd" clip-rule="evenodd" d="M47.8749 17.7839V6.74097C47.8749 5.59372 46.9449 4.66369 45.7976 4.66369C44.6504 4.66369 43.7203 5.59372 43.7203 6.74096V17.7839C43.7203 18.9311 44.6504 19.8611 45.7976 19.8611C46.9449 19.8611 47.8749 18.9311 47.8749 17.7839ZM45.7976 0.265625C42.2214 0.265625 39.3223 3.16473 39.3223 6.74096V17.7839C39.3223 21.3601 42.2214 24.2592 45.7976 24.2592C49.3738 24.2592 52.2729 21.3601 52.2729 17.7839V6.74097C52.2729 3.16473 49.3738 0.265625 45.7976 0.265625Z" fill="currentColor"/>
<path fill-rule="evenodd" clip-rule="evenodd" d="M62.7675 17.7761V6.73315C62.7675 5.5859 61.8374 4.65587 60.6902 4.65587C59.5429 4.65587 58.6129 5.5859 58.6129 6.73315V17.7761C58.6129 18.9233 59.5429 19.8533 60.6902 19.8533C61.8374 19.8533 62.7675 18.9233 62.7675 17.7761ZM60.6902 0.257812C57.114 0.257812 54.2148 3.15692 54.2148 6.73315V17.7761C54.2148 21.3523 57.114 24.2514 60.6902 24.2514C64.2664 24.2514 67.1655 21.3523 67.1655 17.7761V6.73315C67.1655 3.15692 64.2664 0.257812 60.6902 0.257812Z" fill="currentColor"/>
<path fill-rule="evenodd" clip-rule="evenodd" d="M0.939453 0.611437V0.609375H7.57871V24.1072H3.18065V5.37694H0.939453V5.00744V0.611437Z" fill="currentColor"/>
</svg>
