<svg  viewBox="0 0 498 224" fill="none" xmlns="http://www.w3.org/2000/svg">
<path d="M295.052 122.35C295.052 132.482 292.18 140.5 286.436 146.403C280.771 152.307 273.073 155.259 263.34 155.259C252.33 155.259 244.113 153.823 238.688 150.951V68.0201L255.202 67.1824V92.6719C257.675 91.7146 260.667 91.2359 264.177 91.2359C273.511 91.2359 280.971 93.9883 286.555 99.493C292.22 104.998 295.052 112.617 295.052 122.35ZM255.202 140.42C257.356 141.218 259.829 141.617 262.622 141.617C273.073 141.617 278.298 135.394 278.298 122.948C278.298 110.901 273.113 104.878 262.741 104.878C260.428 104.878 257.915 105.476 255.202 106.673V140.42ZM354.425 149.993C347.564 153.504 338.868 155.259 328.338 155.259C320.439 155.259 314.336 153.544 310.028 150.113C305.8 146.603 303.686 142.055 303.686 136.471C303.686 130.647 305.88 126.06 310.268 122.709C314.655 119.358 320.479 117.643 327.739 117.563C330.851 117.563 334.401 117.882 338.39 118.52V115.648C338.39 108.468 334.321 104.878 326.184 104.878C320.28 104.878 315.014 105.835 310.387 107.75L307.395 94.8259C313.14 92.4326 320.041 91.2359 328.098 91.2359C336.794 91.2359 343.336 93.4298 347.724 97.8177C352.192 102.206 354.425 108.508 354.425 116.725V149.993ZM330.013 143.412C333.523 143.412 336.315 142.853 338.39 141.736V128.932C335.438 128.293 332.606 127.974 329.893 127.974C323.351 127.974 320.08 130.567 320.08 135.753C320.08 140.859 323.391 143.412 330.013 143.412Z" fill="#78797D"/>
<path d="M385.851 153.823H369.456V96.5013C377.673 92.991 386.688 91.2359 396.501 91.2359C405.277 91.2359 412.058 93.35 416.845 97.5783C421.632 101.807 424.025 107.87 424.025 115.768V153.823H407.511V116.965C407.511 108.907 403.801 104.878 396.382 104.878C392.472 104.878 388.962 105.596 385.851 107.032V153.823ZM485.898 149.993C479.037 153.504 470.341 155.259 459.81 155.259C451.912 155.259 445.809 153.544 441.5 150.113C437.272 146.603 435.158 142.055 435.158 136.471C435.158 130.647 437.352 126.06 441.74 122.709C446.128 119.358 451.952 117.643 459.211 117.563C462.323 117.563 465.873 117.882 469.862 118.52V115.648C469.862 108.468 465.793 104.878 457.656 104.878C451.752 104.878 446.487 105.835 441.859 107.75L438.868 94.8259C444.612 92.4326 451.513 91.2359 459.57 91.2359C468.266 91.2359 474.808 93.4298 479.196 97.8177C483.664 102.206 485.898 108.508 485.898 116.725V149.993ZM461.485 143.412C464.995 143.412 467.788 142.853 469.862 141.736V128.932C466.91 128.293 464.078 127.974 461.366 127.974C454.824 127.974 451.553 130.567 451.553 135.753C451.553 140.859 454.863 143.412 461.485 143.412Z" fill="#E5333B"/>
<path d="M252.842 172.112H246.198V191.983H243.952V172.112H237.307V170.147H252.842V172.112ZM261.977 190.892C260.313 191.869 258.285 192.358 255.894 192.358C254.001 192.358 252.545 191.942 251.526 191.11C250.507 190.257 249.998 189.134 249.998 187.741C249.998 186.139 250.559 184.954 251.682 184.185C252.805 183.394 254.261 182.989 256.05 182.968C257.256 182.968 258.514 183.114 259.824 183.405V181.595C259.824 179.058 258.462 177.789 255.738 177.789C254.178 177.789 252.774 178.06 251.526 178.601L251.027 176.791C252.421 176.188 254.043 175.887 255.894 175.887C257.911 175.887 259.429 176.386 260.448 177.384C261.467 178.361 261.977 179.796 261.977 181.689V190.892ZM256.081 190.611C257.661 190.611 258.909 190.32 259.824 189.737V184.996C258.452 184.704 257.266 184.559 256.268 184.559C253.544 184.559 252.181 185.599 252.181 187.678C252.181 188.635 252.514 189.363 253.18 189.862C253.866 190.361 254.833 190.611 256.081 190.611ZM269.451 169.398V187.522C269.451 188.542 269.607 189.29 269.919 189.769C270.23 190.247 270.771 190.486 271.541 190.486C271.707 190.486 272.009 190.455 272.445 190.392L272.633 192.171C272.092 192.295 271.624 192.358 271.229 192.358C268.588 192.358 267.267 190.756 267.267 187.554V169.554L269.451 169.398ZM282.371 177.758C280.936 177.758 279.792 178.237 278.94 179.193C278.087 180.129 277.588 181.398 277.442 182.999H286.551C286.572 182.854 286.582 182.656 286.582 182.406C286.582 181.096 286.229 179.994 285.522 179.1C284.815 178.205 283.764 177.758 282.371 177.758ZM288.517 191.266C286.957 191.994 285.199 192.358 283.245 192.358C280.749 192.358 278.773 191.64 277.317 190.205C275.882 188.77 275.165 186.732 275.165 184.091C275.165 181.658 275.81 179.682 277.099 178.164C278.409 176.646 280.167 175.887 282.371 175.887C284.368 175.887 285.927 176.531 287.05 177.821C288.173 179.11 288.735 180.743 288.735 182.718C288.735 183.384 288.704 183.997 288.641 184.559H277.411C277.494 186.514 278.056 187.99 279.096 188.989C280.156 189.966 281.591 190.455 283.401 190.455C284.919 190.455 286.489 190.112 288.111 189.425L288.517 191.266ZM295.376 191.983H293.193V177.478C295.272 176.417 297.477 175.887 299.806 175.887C301.865 175.887 303.414 176.396 304.454 177.415C305.515 178.413 306.045 179.817 306.045 181.627V191.983H303.862V181.751C303.862 180.503 303.518 179.536 302.832 178.85C302.167 178.143 301.158 177.789 299.806 177.789C298.184 177.789 296.707 178.143 295.376 178.85V191.983ZM318.586 192.046C317.796 192.254 317.016 192.358 316.246 192.358C313.189 192.358 311.661 190.694 311.661 187.366V178.101H309.29V176.261H311.661V172.549L313.844 172.393V176.261H318.087V178.101H313.844V187.366C313.844 188.469 314.063 189.259 314.499 189.737C314.957 190.216 315.633 190.455 316.527 190.455C317.234 190.455 317.869 190.372 318.43 190.205L318.586 192.046ZM336.593 172.455C335.282 175.387 333.858 179.1 332.319 183.592H340.866C339.327 179.1 337.903 175.387 336.593 172.455ZM343.549 191.983C342.967 189.966 342.291 187.824 341.522 185.557H331.664C330.894 187.824 330.218 189.966 329.636 191.983H327.328C330.073 183.103 332.766 175.824 335.407 170.147H337.747C340.638 176.365 343.341 183.644 345.858 191.983H343.549ZM355.767 175.887C357.431 175.887 358.928 176.199 360.259 176.822L359.791 178.601C358.418 178.06 357.119 177.789 355.892 177.789C354.145 177.789 352.803 178.361 351.867 179.505C350.952 180.649 350.495 182.219 350.495 184.216C350.495 186.254 350.984 187.803 351.961 188.864C352.938 189.925 354.363 190.455 356.235 190.455C357.483 190.455 358.73 190.153 359.978 189.55L360.415 191.359C359.146 192.025 357.722 192.358 356.141 192.358C353.625 192.358 351.68 191.651 350.308 190.236C348.935 188.822 348.249 186.826 348.249 184.247C348.249 181.71 348.904 179.682 350.214 178.164C351.545 176.646 353.396 175.887 355.767 175.887ZM370.572 175.887C372.236 175.887 373.734 176.199 375.065 176.822L374.597 178.601C373.224 178.06 371.924 177.789 370.697 177.789C368.95 177.789 367.609 178.361 366.673 179.505C365.758 180.649 365.3 182.219 365.3 184.216C365.3 186.254 365.789 187.803 366.767 188.864C367.744 189.925 369.169 190.455 371.04 190.455C372.288 190.455 373.536 190.153 374.784 189.55L375.221 191.359C373.952 192.025 372.527 192.358 370.947 192.358C368.43 192.358 366.486 191.651 365.113 190.236C363.741 188.822 363.054 186.826 363.054 184.247C363.054 181.71 363.709 179.682 365.02 178.164C366.351 176.646 368.202 175.887 370.572 175.887ZM385.066 177.758C383.631 177.758 382.487 178.237 381.635 179.193C380.782 180.129 380.283 181.398 380.137 182.999H389.246C389.267 182.854 389.278 182.656 389.278 182.406C389.278 181.096 388.924 179.994 388.217 179.1C387.51 178.205 386.46 177.758 385.066 177.758ZM391.212 191.266C389.652 191.994 387.895 192.358 385.94 192.358C383.444 192.358 381.468 191.64 380.013 190.205C378.578 188.77 377.86 186.732 377.86 184.091C377.86 181.658 378.505 179.682 379.794 178.164C381.104 176.646 382.862 175.887 385.066 175.887C387.063 175.887 388.622 176.531 389.745 177.821C390.869 179.11 391.43 180.743 391.43 182.718C391.43 183.384 391.399 183.997 391.336 184.559H380.106C380.189 186.514 380.751 187.99 381.791 188.989C382.851 189.966 384.286 190.455 386.096 190.455C387.614 190.455 389.184 190.112 390.806 189.425L391.212 191.266ZM398.04 169.398V187.522C398.04 188.542 398.196 189.29 398.508 189.769C398.82 190.247 399.361 190.486 400.13 190.486C400.297 190.486 400.598 190.455 401.035 190.392L401.222 192.171C400.682 192.295 400.214 192.358 399.818 192.358C397.177 192.358 395.857 190.756 395.857 187.554V169.554L398.04 169.398ZM410.961 177.758C409.526 177.758 408.382 178.237 407.529 179.193C406.677 180.129 406.178 181.398 406.032 182.999H415.141C415.162 182.854 415.172 182.656 415.172 182.406C415.172 181.096 414.819 179.994 414.112 179.1C413.404 178.205 412.354 177.758 410.961 177.758ZM417.106 191.266C415.547 191.994 413.789 192.358 411.834 192.358C409.339 192.358 407.363 191.64 405.907 190.205C404.472 188.77 403.755 186.732 403.755 184.091C403.755 181.658 404.399 179.682 405.689 178.164C406.999 176.646 408.756 175.887 410.961 175.887C412.957 175.887 414.517 176.531 415.64 177.821C416.763 179.11 417.325 180.743 417.325 182.718C417.325 183.384 417.293 183.997 417.231 184.559H406.001C406.084 186.514 406.645 187.99 407.685 188.989C408.746 189.966 410.181 190.455 411.99 190.455C413.508 190.455 415.079 190.112 416.701 189.425L417.106 191.266ZM421.907 177.478C423.779 176.417 425.963 175.887 428.458 175.887C429.041 175.887 429.623 175.939 430.205 176.043L429.893 177.945C429.561 177.841 429.124 177.789 428.583 177.789C426.836 177.789 425.339 178.143 424.091 178.85V191.983H421.907V177.478ZM444.306 190.892C442.642 191.869 440.614 192.358 438.222 192.358C436.33 192.358 434.874 191.942 433.855 191.11C432.836 190.257 432.327 189.134 432.327 187.741C432.327 186.139 432.888 184.954 434.011 184.185C435.134 183.394 436.59 182.989 438.378 182.968C439.585 182.968 440.843 183.114 442.153 183.405V181.595C442.153 179.058 440.791 177.789 438.066 177.789C436.507 177.789 435.103 178.06 433.855 178.601L433.356 176.791C434.749 176.188 436.372 175.887 438.222 175.887C440.24 175.887 441.758 176.386 442.777 177.384C443.796 178.361 444.306 179.796 444.306 181.689V190.892ZM438.41 190.611C439.99 190.611 441.238 190.32 442.153 189.737V184.996C440.78 184.704 439.595 184.559 438.597 184.559C435.872 184.559 434.51 185.599 434.51 187.678C434.51 188.635 434.843 189.363 435.508 189.862C436.195 190.361 437.162 190.611 438.41 190.611ZM456.833 192.046C456.043 192.254 455.263 192.358 454.493 192.358C451.436 192.358 449.908 190.694 449.908 187.366V178.101H447.537V176.261H449.908V172.549L452.091 172.393V176.261H456.334V178.101H452.091V187.366C452.091 188.469 452.31 189.259 452.746 189.737C453.204 190.216 453.88 190.455 454.774 190.455C455.481 190.455 456.115 190.372 456.677 190.205L456.833 192.046ZM471.309 178.133C472.556 179.63 473.18 181.627 473.18 184.122C473.18 186.618 472.556 188.614 471.309 190.112C470.061 191.609 468.314 192.358 466.068 192.358C463.863 192.358 462.127 191.609 460.858 190.112C459.61 188.614 458.986 186.618 458.986 184.122C458.986 181.627 459.61 179.63 460.858 178.133C462.127 176.635 463.863 175.887 466.068 175.887C468.314 175.887 470.061 176.635 471.309 178.133ZM462.449 179.505C461.638 180.628 461.232 182.167 461.232 184.122C461.232 186.077 461.638 187.626 462.449 188.77C463.281 189.893 464.487 190.455 466.068 190.455C467.69 190.455 468.907 189.893 469.718 188.77C470.529 187.647 470.934 186.098 470.934 184.122C470.934 182.146 470.529 180.597 469.718 179.474C468.907 178.351 467.69 177.789 466.068 177.789C464.487 177.789 463.281 178.361 462.449 179.505ZM477.809 177.478C479.681 176.417 481.865 175.887 484.36 175.887C484.943 175.887 485.525 175.939 486.107 176.043L485.795 177.945C485.462 177.841 485.026 177.789 484.485 177.789C482.738 177.789 481.241 178.143 479.993 178.85V191.983H477.809V177.478Z" fill="#97969C"/>
<path d="M199.47 218.001C198.637 216.356 197.538 214.885 196.354 213.481C191.618 207.858 186.209 202.942 180.782 198.053C176.846 194.51 172.832 191.057 168.851 187.566C166.174 185.101 163.496 182.639 160.822 180.171C154.753 174.569 148.551 169.11 143.536 162.424C141.474 159.674 140.157 156.739 140.494 153.175C140.688 151.113 140.756 149.038 140.882 146.969C141.005 146.346 141.144 145.731 141.253 145.105C142.498 137.821 143.818 130.55 145.713 123.405C146.819 119.528 147.673 115.589 148.619 111.67C150.891 102.265 153.279 92.8872 154.426 83.249C154.804 80.064 155.28 76.8269 154.287 73.6454C153.528 71.2115 151.949 70.5648 149.704 71.7122C146.805 73.1969 144.716 75.6308 142.604 78.0299C137.681 83.6175 133.578 89.8379 129.614 96.1278C126.75 100.672 123.929 105.272 121.626 110.165C121.367 110.533 121.054 110.87 120.857 111.27C118.428 116.176 115.955 121.062 113.628 126.016C112.393 128.648 111.083 131.263 110.259 134.079C109.232 136.013 108.589 138.109 107.827 140.154C106.806 142.894 107.266 143.533 110.103 143.746C118.163 144.351 124.246 148.248 128.09 155.501C131.679 162.278 131.489 169.208 128.298 176.113C126.6 178.975 124.719 181.659 122.034 183.686C120.83 184.597 120.915 185.731 122.082 186.718C122.558 187.121 123.092 187.455 123.603 187.82C132.271 194.002 141.341 199.513 150.622 204.659C160.87 210.344 171.307 215.626 182.293 219.68C186.896 221.38 191.533 223.063 196.538 223.035C199.8 223.018 200.988 221.005 199.477 218.011L199.47 218.001Z" fill="#78797D"/>
<path d="M86.1805 117.762C86.1873 108.801 80.1349 101.082 71.5411 99.3438C65.5431 98.1303 60.1473 99.4829 55.6531 103.909C52.9654 106.194 51.2882 109.125 50.373 112.543C49.6347 115.554 49.5122 118.575 50.2301 121.607C51.0092 125.672 53.1049 128.93 56.0784 131.67C61.8076 136.951 71.7452 137.584 77.7125 133.029C80.0566 131.729 81.8291 129.837 83.156 127.49C84.9251 125.039 85.762 122.264 85.9185 119.246C86.2859 118.801 86.1839 118.269 86.1839 117.758L86.1805 117.762Z" fill="#78797D"/>
<path d="M124.016 155.598C123.839 155.379 123.632 155.178 123.485 154.938C119.495 148.38 109.523 145.289 102.603 148.474C100.368 149.246 98.347 150.376 96.7276 152.17C91.4713 156.377 89.2838 165.125 91.6278 171.965C94.9653 181.693 105.345 186.711 114.701 183.581C121.546 181.29 127.36 173.731 127.024 166.415C127.194 162.469 126.398 158.804 124.02 155.595L124.016 155.598Z" fill="#E5333B"/>
<path d="M101.322 122.859C100.741 115.599 99.2131 108.495 97.4032 101.461C95.7157 94.907 94.0555 88.3389 91.708 81.9864C91.6682 81.8789 91.6571 81.83 91.6093 81.67C91.113 80.0094 90.7044 78.339 90.0103 76.7535C89.958 76.6339 89.9048 76.458 89.9048 76.458C89.2959 74.2814 88.6393 72.1221 87.6288 70.0916C85.2065 62.8767 82.4236 55.8149 79.1065 48.9791L78.984 48.6453C78.7458 48.0229 78.5791 47.3623 78.1028 46.8616C77.3135 44.7545 76.2283 42.797 75.1634 40.8325C73.0337 36.9034 70.8903 32.9779 67.6753 29.8138C66.5866 28.7429 65.3823 27.7763 63.7901 28.2352C62.2863 28.6699 61.9121 30.078 61.6943 31.4967C61.6161 32.0043 61.4494 32.4981 61.3881 33.0092C60.5308 40.1197 61.3677 47.1745 62.106 54.2329C62.436 59.8378 63.2525 65.3872 64.0248 70.9399C64.61 78.186 65.7701 85.3661 66.311 92.6191C66.4948 95.0948 66.7431 95.1191 69.1586 95.2443C69.9445 95.286 70.7304 95.4112 71.5061 95.5572C84.009 97.8799 91.8305 109.646 89.0747 122.379C87.2546 130.8 81.9098 136.537 73.7481 138.822C65.4061 141.155 57.9996 138.926 51.937 132.494C50.2496 130.703 50.0692 130.696 48.0246 132.128C41.7034 136.565 35.338 140.932 29.027 145.39C21.8315 150.47 14.5067 155.379 7.81472 161.169C5.14064 163.481 2.48017 165.828 0.724671 169.009C-0.438859 171.12 0.112286 172.803 2.23862 173.856C3.92608 174.691 5.78024 174.68 7.55276 174.611C16.8576 174.242 25.829 171.878 34.7324 169.367C42.1559 167.271 49.4671 164.743 56.649 161.86C69.1518 156.843 81.4574 151.419 92.3068 143.123C95.304 140.831 98.0734 138.255 99.965 134.896C102.095 131.117 101.639 126.937 101.312 122.866L101.322 122.859Z" fill="#E5333B"/>
</svg>
