<svg  viewBox="0 0 916 523" fill="none" xmlns="http://www.w3.org/2000/svg">
<g clip-path="url(#clip0_320_1603)">
<path d="M286.3 521.93C285.37 521.42 284.39 521.61 283.38 521.66C274.86 522.02 266.51 520.66 258.18 519.06C254.95 518.44 251.67 518.71 248.33 517.83C242.44 516.28 236.39 515.15 230.4 514C224.43 512.85 218.98 510.44 213.24 508.77C200.66 505.12 189.08 499.24 177.76 492.66C170.89 488.67 164.95 483.78 159.56 478.15C151.09 469.31 153.61 457.57 164.16 450.99C174.28 444.68 185.23 444.28 196.23 445.14C200.86 445.5 205.73 445.21 210.15 446.38C216.9 448.16 223.88 447.81 230.68 449.64C234.59 450.7 239.04 451.26 243.34 451.56C250.33 452.05 257.28 452.96 264.25 453.69C264.37 453.7 264.5 453.75 264.62 453.74C272.1 452.79 279.29 455.89 286.75 455.32C297.55 454.49 308.27 458.09 318.98 456.5C332.25 454.52 345.58 456.54 358.73 455.13C370.42 453.88 382.15 453.95 393.78 452.72C401.91 451.85 410.22 451.38 418.11 449.73C425.8 448.12 433.67 447.92 441.15 445.94C446.37 444.56 451.69 443.84 456.91 442.78C464.41 441.25 471.87 439.24 479.56 438.53C482.82 438.23 485.6 436.16 488.92 435.44C498.03 433.46 506.92 430.45 515.98 428.22C525.72 425.82 534.68 421.37 544.13 418.23C548.29 416.85 552.68 416.08 556.58 413.95C564.95 409.38 574.07 406.48 582.57 402.23C588.02 399.51 593.34 396.46 598.78 393.76C603.31 391.52 607.74 389.18 611.9 386.39C616.64 383.2 621.87 380.88 626.69 377.81C629.98 375.71 633.28 373.48 636.37 371.17C641.19 367.57 646.55 367.57 651.31 369.13C660.32 372.07 669.42 373.75 678.64 372.41C686.55 371.26 694.3 369.23 701.45 364.75C710.68 358.97 719.54 352.92 727.32 345.25C731.56 341.07 736 340.34 740.81 343.19C748.2 347.57 757.45 344.92 762.85 339.33C766.35 335.71 769.51 333.54 774.87 335.99C778.84 337.8 787.09 333.89 789.83 329.89C793.78 324.13 794.64 324.21 801.92 325.58C806.59 326.46 811.61 326.65 816.14 324.15C817.92 323.67 819.72 323.3 821 321.73C821.62 320.97 822.51 320.33 823.59 321.15L823.55 321.12C827.08 320.58 827.37 317.69 827.64 315.08C828.26 309.1 829.96 303.2 829.19 297.1C831.86 294.09 829.18 290.07 831.12 286.92C831.86 281.61 833.27 276.54 835.75 271.73C836.97 269.36 837.39 266.6 838.35 264.08C841.15 256.74 843.33 249.04 847.13 242.25C850.18 236.8 853 231.05 857.01 226.12C857.69 225.29 858.62 224.94 859.69 225.19C861.04 225.51 860.76 226.64 860.87 227.61C861.48 232.64 860.25 237.41 858.61 242.04C856.36 248.38 858 259.52 862.95 262.53C869.49 266.5 876.76 269.56 884.54 265.75C887.21 264.44 889.38 262.09 891.68 260.1C893.28 258.71 894.65 257.07 896.21 255.64C898.05 253.94 899.89 250.64 902.6 252.69C904.77 254.34 903.83 257.86 903.26 260.45C901.8 267.12 900.61 273.95 898.16 280.27C895.8 286.38 894.31 292.95 890.23 298.36C886.93 302.73 884.78 307.83 881.81 312.44C879.52 315.99 876.31 318.67 874.08 322.27C870.87 327.43 866.27 331.46 860.86 334.24C856.62 336.43 852.51 339.19 847.02 336.67C844.56 335.54 841.68 335.31 839.27 333.54C837.18 332.01 836.01 334.24 835.24 335.59C831.72 341.71 827.38 347.08 822.4 352.11C819.37 355.17 815.59 356.84 812 356.91C807.05 357 803.35 359.15 799.94 361.75C792.73 367.25 784.51 370.51 775.97 372.57C768.35 374.41 761.11 376.89 753.91 379.91C749.68 381.69 744.78 381.81 740.33 383.17C734.36 384.99 728.26 383.59 722.32 384.4C717 385.12 712 386.91 707.42 390.26C701.83 394.35 697.77 400 692.33 404.06C686.66 408.29 682.5 413.99 676.99 418.3C671.95 422.24 663.81 423.16 657.73 420.73C650.44 417.82 644.7 412.79 638.48 408.4C636.2 406.79 634.33 406.16 632.17 408.68C625.28 416.7 617.04 423.36 608.61 429.51C601.27 434.86 593.76 440.1 586.2 445.19C575.82 452.18 564.83 458.05 554.07 464.33C549.04 467.27 543.49 469.34 538.45 472.26C528.76 477.89 518.12 481.34 508 485.96C500.15 489.54 492.06 492.68 483.86 495.37C481.11 496.27 478.13 496.85 475.38 497.89C469.66 500.06 463.91 502.08 458.02 503.79C453.78 505.02 449.49 506 445.24 507.15C440.51 508.43 435.82 510.18 430.99 510.73C426.26 511.26 421.89 512.95 417.36 513.98C411.48 515.32 405.41 515.45 399.61 517.29C396.39 518.31 392.74 518.45 389.46 518.61C383.89 518.88 378.34 519.8 372.99 520.67C366.54 521.72 360.15 521.19 353.79 521.98C353 522.5 352.1 522.32 351.24 522.32C330.44 522.32 309.64 522.32 288.84 522.32C287.98 522.32 287.09 522.5 286.3 521.96V521.93Z" fill="#2E8AC9"/>
<path d="M115.13 346.63C117.5 346.63 119.89 346.46 122.24 346.66C130.88 347.4 138.93 343.89 147.29 343.21C153.03 342.75 157.61 339.47 163.16 338.56C166.49 338.01 170.02 335.75 173.49 334.31C177.63 332.6 181.98 330.9 185.48 328.22C189.67 325.01 194.33 322.68 198.71 319.89C203.45 316.88 207.86 313.37 211.99 309.77C215.44 306.76 218.6 303.02 221.93 299.77C226.89 294.94 230.42 289.16 234.53 283.79C237.43 280 239.13 275.42 239.7 270.62C240.43 264.44 236.51 260.15 231.48 257.87C228.36 256.45 225.21 255.06 222.24 253.37C215.08 249.29 207.95 245.15 200.93 240.83C195.39 237.43 190.24 233.16 187.36 227.42C185.28 223.28 182.35 219.43 182.35 213.87C182.35 210.07 180.89 205.75 181.53 201.87C182.82 193.98 184.65 186.18 187.06 178.48C189.28 171.42 191.6 164.32 194.62 157.69C197.39 151.62 199.74 145.23 203.79 139.61C207.77 134.09 210.96 127.96 214.75 122.23C218.12 117.14 222.05 112.53 225.74 107.72C229.17 103.25 232.35 98.35 236.61 94.82C241.35 90.89 245.03 85.98 249.81 82.17C256.94 76.49 264.01 70.8 271.69 65.82C277.51 62.04 283.63 58.84 289.78 55.84C294.92 53.33 300.54 51.53 306.21 49.94C311.54 48.44 317.09 48.48 322.26 46.56C323.53 46.09 324.94 46.04 326.25 46.79C326.88 47.16 327.6 47.71 328.25 47.68C334.29 47.38 338.71 50.95 343.66 53.58C348.61 56.21 354.33 55.78 359.73 54.97C366.51 53.95 371.22 49.86 375.04 44.17C377.05 41.18 380.46 38.65 384.31 38.73C393.49 38.91 397.93 32.99 401.38 25.99C404.38 19.92 406.36 13.33 409.48 7.32998C410.84 4.71998 412.3 1.64998 415.76 0.389984C417.77 -0.340016 418.86 -0.150016 418.73 1.83998C418.34 7.60998 418.8 13.33 417.89 19.21C416.89 25.69 415.21 32 413.21 38C411.13 44.25 408.99 50.91 404.05 55.99C402.08 58.01 400.4 60.31 398.34 62.3C393.11 67.34 387.29 71.05 380.09 72.82C377.08 73.56 374.3 75.61 371.69 77.46C364.37 82.64 358.07 89.13 350.17 93.6C339.76 99.49 328.83 102.08 317.35 98.19C314.03 97.06 310.53 95.66 307.33 94.02C301.07 90.81 295.02 90.72 288.96 94.09C286.85 95.27 284.61 94.31 282.43 95.14C274.99 97.98 267.73 101.14 261.31 105.91C253.07 112.04 244.42 117.65 237.14 125C232.76 129.42 229.02 134.28 226.11 139.8C225.4 141.16 225.31 142.6 225.67 143.75C227.17 148.45 228.21 152.95 232.45 156.83C238.28 162.17 244.84 165.76 251.6 169.4C258.58 173.15 264.44 178.42 267.9 185.55C268.99 187.8 269.78 190.81 269.76 193.72C269.69 204.21 270.38 214.75 269.49 225.16C269.04 230.46 269.1 236.11 266.39 241.29C265 243.95 265.65 247.52 264.6 250.63C262.73 256.17 261.92 262.04 259.49 267.43C258.22 270.24 257.15 273.1 256.78 276.22C256.47 278.82 254.33 280.59 253.43 283.06C249.31 294.36 244.3 305.31 238.51 315.86C233.72 324.59 228.68 333.19 222.8 341.25C218.67 346.91 214.31 352.41 210.23 358.11C208.8 360.1 206.91 361.65 205.31 363.41C200.44 368.79 195.83 374.41 190.48 379.42C185.99 383.62 181.53 387.89 177.05 392.13C171.9 396.99 165.96 400.72 160.25 404.79C155.96 407.85 151.76 411.1 146.97 413.41C142.11 415.75 137.21 418 132.41 420.46C126.07 423.71 118.94 424.46 112.25 426.41C107.8 427.71 102.73 428.65 97.74 428.49C91 428.27 84.18 429.03 77.54 428.2C71.91 427.5 66.22 426.98 60.59 425.2C55.38 423.56 50.47 421.42 45.75 419.02C41.02 416.61 36.81 413.03 32.71 409.56C25.55 403.5 20.31 395.82 15.46 387.86C10.51 379.74 7.63003 370.89 4.98003 361.8C2.54003 353.4 2.29003 344.88 1.05003 336.41C-0.20997 327.8 -0.15997 319.29 0.22003 310.83C0.53003 303.91 1.82003 296.85 2.03003 289.96C2.22003 283.4 4.84003 277.58 5.46003 271.23C5.83003 267.44 6.15003 263.19 8.53003 259.56C9.96003 257.38 9.67003 254.33 10.15 251.75C11.12 246.53 13.03 241.4 14.8 236.76C17.62 229.34 19.63 221.39 23.96 214.47C25.07 212.7 26.24 210.37 25.88 207.9C25.71 206.78 26.3 206.05 26.95 205.24C29.54 201.99 30.84 198.06 32.34 194.28C33.6 191.1 35.41 188.17 36.94 185.19C40.69 177.93 43.95 170.42 47.91 163.28C50.29 158.99 53.19 154.79 55.07 150.43C56.91 146.17 59.99 142.64 61.37 137.99C62.42 134.42 65.03 130.81 67.57 127.65C71.19 123.14 72.93 117.61 76.13 112.8C83.33 101.98 89.07 90.22 96.8 79.68C98.43 77.46 99.04 74.47 101.43 72.67C102.54 71.84 103.3 70.07 105.16 71.49C106.81 72.74 106.4 73.92 105.73 75.69C103.48 81.63 102.16 87.97 98.87 93.44C96.42 97.52 95.97 102.36 93.11 106.27C91.43 108.57 90.91 111.54 89.18 114.07C85.56 119.37 82.76 125.27 80.01 131.05C76.63 138.15 73.26 145.28 69.86 152.38C66.88 158.6 64.45 165.12 61.12 171.08C57.54 177.48 54.62 184.21 51.66 190.81C49.62 195.37 47.65 200.25 45.4 204.64C42.72 209.86 41.1 215.45 39.87 220.79C38.3 227.6 35.91 234.25 35.17 241.4C34.25 250.33 32.4 259.24 33.08 268.2C33.65 275.76 33 283.61 35.53 290.85C38.58 299.59 41.54 308.73 47.48 315.84C51.25 320.36 55.3 324.96 60.13 328.83C63.92 331.86 68 334.36 71.76 337.33C73.36 338.59 75.17 338.6 76.74 339.48C83.13 343.02 90.39 344.09 97.22 346.29C101.3 347.61 106.13 346.59 110.62 346.62C112.12 346.62 113.62 346.62 115.12 346.62L115.13 346.63Z" fill="#2E8AC9"/>
<path d="M735.44 438.4C745.98 439.24 754.33 442.43 761.38 448.76C762.48 449.75 763.5 450.78 764.82 451.57C767.13 452.94 768.83 452.06 769.74 450.17C771.26 447 773.66 444.56 775.83 441.93C780.69 436.05 784.72 429.53 789.81 423.82C792.01 421.34 794.2 421.68 797.14 422.23C801.82 423.1 805.6 425.36 809.05 428.26C814.62 432.95 819.38 438.44 819.08 446.23C818.88 451.26 815.68 455.48 813.03 459.58C806.75 469.3 798.27 477.14 790.1 485.22C787.87 487.42 782.15 486.94 778.62 484.86C772.74 481.4 766.64 478.34 760.36 475.66C758.92 475.05 757.8 475.57 757.13 476.7C754.15 481.68 750.16 485.88 746.74 490.52C743.09 495.47 738.77 499.69 732.86 501.85C730.73 502.63 728.53 502.54 726.34 501.46C720.51 498.58 714.66 495.63 708.38 493.94C704.91 493.01 701.76 491.31 698.31 490.47C696.58 490.05 696.98 489.37 697.76 488.48C702.47 483.11 705.61 476.66 709.75 470.87C716.35 461.64 723.49 452.71 729.04 442.71C730.51 440.05 732.71 437.41 735.46 438.4H735.44Z" fill="#2E8AC9"/>
<path d="M420.6 319.22C427.41 320.79 434.2 321.98 440.31 326.01C443.33 328.01 445.54 330.859 448.73 332.609C450.65 333.669 452.04 333.8 453.1 331.92C456.77 325.43 462.44 320.46 466.38 314.1C468.69 310.38 471.71 306.769 474.97 303.579C476.25 302.329 477.71 302.219 479.11 302.559C488.58 304.919 495.94 309.939 500.65 318.839C503.2 323.659 503.46 327.729 501.05 332.799C496.09 343.219 488.58 351.47 480.58 359.44C478.9 361.11 477.21 362.77 475.57 364.48C472.03 368.16 468.75 368.519 463.98 366.279C457.94 363.429 452.3 359.819 446.1 357.269C442.5 355.789 441.55 356.49 439.11 359.79C433.5 367.37 428.68 375.72 420.34 380.95C416.18 383.56 412.41 383.729 407.91 381.209C400.03 376.789 391.31 374.22 382.69 371.56C380.74 370.96 380.79 370.67 381.86 369.22C384.84 365.21 387.28 360.819 390.05 356.709C392.46 353.119 395 349.469 397.74 346.079C401.83 341.019 405.26 335.529 409.05 330.269C411.41 326.989 413.07 323.249 415.98 320.309C417.44 318.839 419.07 320.05 420.59 319.22H420.6Z" fill="#2E8AC9"/>
<path d="M260.28 396.64C260.28 393.65 260.28 390.65 260.28 387.66C260.28 382.62 261.77 377.85 262.77 372.98C263.41 369.89 263.88 366.69 264.25 363.58C265.38 354.17 268.97 345.48 271.23 336.41C272.87 329.83 275.29 323.5 277.47 317.14C279.79 310.38 282.97 303.74 288.38 298.59C289.5 297.53 290.66 296.94 292.05 297.54C293.5 298.15 294.19 299.35 294.44 301.01C295.05 304.96 293.41 308.63 292.57 312.2C291.24 317.84 289.72 323.54 287.82 329.07C286.1 334.08 286.99 339.5 285.22 344.42C282.98 350.63 284.31 356.97 283.97 363.25C283.77 367.11 284.46 370.88 286.32 374.31C287.07 375.7 286.03 377.03 286.58 378.31C288.63 383.14 295.76 390.71 302.03 389.32C308.03 387.99 314.22 387.21 317.58 380.93C318.2 379.77 319.29 378.68 320.42 378.02C322.23 376.97 324.1 377.29 324.19 379.73C324.28 382.24 324.2 384.7 323.41 387.34C322.29 391.04 321.42 394.86 320.34 398.63C317.64 408.05 312.56 416.14 307.11 424.05C303.98 428.59 300.06 432.43 296.13 436.32C290.94 441.44 284.87 440.69 279.02 439.48C268.69 437.35 265.84 428.53 262.97 419.9C260.45 412.31 259.77 404.55 260.26 396.64H260.28Z" fill="#2E8AC9"/>
<path d="M879.15 447.81C872.47 447.99 869.04 444.91 865.09 443.24C859.78 441 854.5 438.7 848.79 437.63C847.23 437.34 845.9 436.33 844.35 435.81C842.32 435.13 844.1 433.51 844.59 432.88C847.76 428.86 849.34 423.94 852.38 419.84C855.47 415.67 857.67 410.9 860.44 406.54C864 400.92 867.8 395.42 870.71 389.46C872.55 385.71 875.41 382.79 877.45 379.26C878.67 377.15 880.99 376.93 882.73 377.72C884.64 378.57 886.64 378.39 888.42 379C899.08 382.65 907.92 388.9 914.27 398.34C915.65 400.4 915.51 402.83 914.39 405.08C912.29 409.28 910.42 413.62 907.97 417.61C904.52 423.24 900.45 428.48 896.15 433.51C894.48 435.46 892.75 437.32 891.2 439.42C887.79 444.05 883.21 447.37 879.15 447.81V447.81Z" fill="#2E8AC9"/>
<path d="M299.75 295.57C303.81 289.42 306.98 284.06 310.74 279.16C312.54 276.82 314.35 274.41 315.86 271.95C318.67 267.38 320.07 267.14 325.52 267.98C329.22 268.55 332.94 269.99 335.46 273.26C336.61 274.75 337.34 274.78 338.71 273C341.24 269.72 343.9 266.56 346.15 263.05C349.41 257.95 354.99 257 359.37 261.55C362.03 264.32 365.5 267.32 364.42 272.37C363.94 274.62 363.36 276.79 362 278.48C358.6 282.72 355.15 286.92 351.21 290.7C348.76 293.05 346.19 293.08 343.4 291.86C341.48 291.03 339.49 290.19 337.82 288.97C334.62 286.64 332.56 288.06 330.4 290.53C328.43 292.77 327.11 295.48 324.9 297.56C321.93 300.36 317.13 301.24 313.36 299.38C311.25 298.35 309.2 297.02 306.97 296.49C304.88 296 303.13 294.22 299.75 295.55V295.57Z" fill="#2F8AC9"/>
<path d="M286.3 521.93C308.8 521.93 331.29 521.95 353.79 521.95C352.97 523.4 351.58 522.8 350.44 522.8C330.18 522.84 309.92 522.83 289.66 522.81C288.49 522.81 287.12 523.33 286.3 521.93V521.93Z" fill="#7895A3"/>
<path d="M831.11 286.9C831.25 294.25 829.19 301.4 829.23 308.8C829.24 311.59 828.1 314.68 827.98 317.73C827.9 319.95 826.01 321.05 824.5 322.21C823.86 322.7 823.65 321.68 823.53 321.09C826.01 320.2 827.02 317.48 826.94 315.82C826.73 311.3 829.1 307.19 828.52 302.77C827.88 297.91 830.39 293.41 829.88 288.59C829.8 287.89 830.28 287.17 831.1 286.9H831.11Z" fill="#2E8AC9"/>
<path d="M823.57 321.12C821.13 322.24 819.41 325.13 816.12 324.12C817.61 322.92 819.4 322.16 820.6 320.5C821.8 318.84 822.84 319.64 823.58 321.12H823.57Z" fill="#2E8AC9"/>
</g>
<defs>
<clipPath id="clip0_320_1603">
<rect width="915.27" height="522.92" fill="white"/>
</clipPath>
</defs>
</svg>
