<svg viewBox="0 0 533 179" fill="none" xmlns="http://www.w3.org/2000/svg">
<path d="M37.4373 67.4152C35.0918 67.4152 32.8983 66.9591 30.8569 66.047C28.8154 65.1783 27.0129 63.9621 25.4492 62.3984C23.929 60.8782 22.7128 59.0974 21.8006 57.0559C20.9319 55.0144 20.4976 52.821 20.4976 50.4755V40.3768H27.0129V50.4755C27.0129 51.9088 27.2735 53.277 27.7947 54.5801C28.3594 55.8397 29.1195 56.9473 30.0751 57.9029C31.0306 58.815 32.1382 59.5317 33.3979 60.0529C34.6575 60.6176 36.004 60.8999 37.4373 60.8999C38.9141 60.8999 40.2823 60.6176 41.542 60.0529C42.845 59.5317 43.9743 58.815 44.9299 57.9029C45.8855 56.9473 46.6456 55.8397 47.2102 54.5801C47.7749 53.277 48.0572 51.9088 48.0572 50.4755V36.3373H54.3771V47.9345C54.3771 49.0638 54.7897 50.0194 55.615 50.8012C56.4402 51.5831 57.4175 51.974 58.5468 51.974H59.2635C60.2625 51.974 61.0661 52.2563 61.6742 52.821C62.2823 53.3856 62.5863 54.1675 62.5863 55.1665C62.5863 56.2089 62.2823 57.0342 61.6742 57.6423C61.1095 58.2069 60.306 58.4893 59.2635 58.4893H58.5468C56.766 58.4893 54.9634 57.968 53.1392 56.9256C52.4876 58.5327 51.6189 59.9878 50.533 61.2908C49.4906 62.5939 48.2744 63.7015 46.8845 64.6136C45.538 65.5258 44.0612 66.2207 42.4541 66.6985C40.847 67.1763 39.1747 67.4152 37.4373 67.4152ZM35.3524 35.0994H40.4995V40.3768H35.3524V35.0994ZM68.5063 58.4893H59.3198C58.2773 58.4893 57.4521 58.1852 56.844 57.5771C56.2359 57.0125 55.9318 56.2089 55.9318 55.1665C55.9318 54.1675 56.2359 53.3856 56.844 52.821C57.4521 52.2563 58.2773 51.974 59.3198 51.974H68.5063C69.071 51.974 69.5922 51.8654 70.07 51.6482C70.5912 51.3876 71.0473 51.0618 71.4382 50.6709C71.8291 50.2366 72.1332 49.7588 72.3503 49.2376C72.5675 48.7163 72.6761 48.1734 72.6761 47.6087V37.2494H79.1914V47.8042C79.1914 49.2376 78.9091 50.6058 78.3444 51.9088C77.7797 53.1684 76.9979 54.2978 75.9989 55.2968C75.0433 56.2523 73.914 57.0342 72.6109 57.6423C71.3079 58.2069 69.9397 58.4893 68.5063 58.4893ZM59.2546 66.047H65.3138V72.2365H59.2546V66.047ZM69.3533 66.047H75.4125V72.2365H69.3533V66.047ZM91.8921 58.4893H85.3768V20.0491H91.8921V58.4893ZM111.067 58.4893C110.329 58.4893 109.569 58.4458 108.787 58.359C108.049 58.2286 107.267 57.9898 106.442 57.6423V58.4893C106.311 60.9216 105.855 62.9848 105.073 64.6788C104.335 66.4162 103.314 67.893 102.011 69.1092C100.708 70.3688 99.1662 71.4112 97.3853 72.2365C95.6479 73.0618 93.6933 73.8002 91.5216 74.4517L90.2185 74.8426L88.6548 69.2395L89.6973 68.7834C91.0438 68.2622 92.3468 67.6975 93.6064 67.0894C94.9095 66.5248 96.0388 65.8515 96.9944 65.0697C98.949 63.4192 99.9263 61.204 99.9263 58.4241V36.0767H106.442V47.9345C106.442 48.7163 106.594 49.3679 106.898 49.8891C107.245 50.4103 107.679 50.8229 108.201 51.127C108.765 51.431 109.373 51.6482 110.025 51.7785C110.676 51.9088 111.328 51.974 111.98 51.974C113.022 51.974 113.826 52.2563 114.39 52.821C114.998 53.3422 115.302 54.124 115.302 55.1665C115.302 56.5998 114.89 57.512 114.064 57.9029C113.283 58.2938 112.284 58.4893 111.067 58.4893ZM100.317 23.437H106.311V29.5614H100.317V23.437ZM121.208 58.4893H112.021C110.979 58.4893 110.153 58.1852 109.545 57.5771C108.937 57.0125 108.633 56.2089 108.633 55.1665C108.633 54.1675 108.937 53.3856 109.545 52.821C110.153 52.2563 110.979 51.974 112.021 51.974H121.208C121.772 51.974 122.293 51.8654 122.771 51.6482C123.292 51.3876 123.749 51.0618 124.139 50.6709C124.53 50.2366 124.834 49.7588 125.052 49.2376C125.269 48.7163 125.377 48.1734 125.377 47.6087V37.2494H131.893V47.8042C131.893 49.2376 131.61 50.6058 131.046 51.9088C130.481 53.1684 129.699 54.2978 128.7 55.2968C127.745 56.2523 126.615 57.0342 125.312 57.6423C124.009 58.2069 122.641 58.4893 121.208 58.4893ZM111.956 66.047H118.015V72.2365H111.956V66.047ZM122.055 66.047H128.114V72.2365H122.055V66.047ZM151.956 58.4893H137.752V51.974H151.956C153.085 51.974 154.062 51.5831 154.888 50.8012C155.713 50.0194 156.125 49.0855 156.125 47.9997C156.125 47.2178 155.952 46.5229 155.604 45.9148C155.3 45.2632 154.866 44.7637 154.301 44.4162L142.704 36.4025L146.092 31.1251C146.222 31.2119 146.591 31.4726 147.199 31.9069C147.808 32.2978 148.503 32.7756 149.284 33.3403C150.11 33.8615 151 34.4479 151.956 35.0994C152.911 35.7075 153.802 36.3156 154.627 36.9237C155.496 37.4883 156.234 37.9878 156.842 38.4222C157.494 38.8565 157.928 39.1606 158.145 39.3343C159.535 40.2899 160.599 41.5278 161.338 43.048C162.119 44.5248 162.51 46.1754 162.51 47.9997C162.51 49.433 162.228 50.7795 161.663 52.0391C161.099 53.2987 160.317 54.4063 159.318 55.3619C158.362 56.3175 157.255 57.0776 155.995 57.6423C154.735 58.2069 153.389 58.4893 151.956 58.4893ZM194.561 69.891C192.216 69.891 190.022 69.4349 187.981 68.5228C185.939 67.6541 184.137 66.4379 182.573 64.8742C181.053 63.354 179.837 61.5732 178.925 59.5317C178.056 57.4902 177.622 55.2968 177.622 52.9513V42.9177H183.941V52.9513C183.941 54.4281 184.224 55.818 184.788 57.121C185.353 58.3807 186.113 59.4883 187.069 60.4438C188.024 61.3994 189.154 62.1595 190.457 62.7242C191.76 63.2888 193.128 63.5712 194.561 63.5712C195.995 63.5712 197.341 63.2888 198.601 62.7242C199.904 62.1595 201.011 61.3994 201.924 60.4438C202.879 59.4883 203.618 58.3807 204.139 57.121C204.703 55.818 204.986 54.4281 204.986 52.9513V38.8131H211.501V47.8042C211.501 49.0204 211.892 50.0411 212.674 50.8664C213.499 51.6916 214.498 52.1043 215.671 52.1043C216.887 52.1043 217.908 51.6916 218.733 50.8664C219.558 50.0411 219.971 49.0204 219.971 47.8042V38.8131H226.356V47.8042C226.356 49.0204 226.768 50.0411 227.594 50.8664C228.419 51.6916 229.44 52.1043 230.656 52.1043C231.872 52.1043 232.893 51.6916 233.718 50.8664C234.543 50.0411 234.956 49.0204 234.956 47.8042V37.4449H241.341V47.6739C241.341 48.8901 241.754 49.9108 242.579 50.7361C243.448 51.5613 244.49 51.974 245.706 51.974H248.052C249.138 51.974 249.963 52.2563 250.528 52.821C251.092 53.3422 251.375 54.124 251.375 55.1665C251.375 56.2089 251.07 57.0342 250.462 57.6423C249.898 58.2069 249.094 58.4893 248.052 58.4893H245.706C244.316 58.4893 242.948 58.2286 241.602 57.7074C240.299 57.1862 239.148 56.4478 238.148 55.4922C237.149 56.4478 235.998 57.1862 234.695 57.7074C233.392 58.2286 232.046 58.4893 230.656 58.4893C229.266 58.4893 227.92 58.2069 226.616 57.6423C225.357 57.0776 224.249 56.2958 223.294 55.2968C222.295 56.2958 221.122 57.0776 219.775 57.6423C218.472 58.2069 217.104 58.4893 215.671 58.4893C213.933 58.4893 212.348 58.0983 210.915 57.3165C210.437 59.1842 209.677 60.8782 208.634 62.3984C207.592 63.9621 206.332 65.2869 204.855 66.3727C203.422 67.5021 201.815 68.3708 200.034 68.9789C198.297 69.587 196.472 69.891 194.561 69.891ZM252.383 58.4893H248.083C247.041 58.4893 246.216 58.1852 245.607 57.5771C244.999 57.0125 244.695 56.2089 244.695 55.1665C244.695 54.1675 244.999 53.3856 245.607 52.821C246.216 52.2563 247.041 51.974 248.083 51.974H252.383C252.948 51.974 253.469 51.8654 253.947 51.6482C254.468 51.3876 254.924 51.0618 255.315 50.6709C255.706 50.2366 256.01 49.7588 256.227 49.2376C256.445 48.7163 256.553 48.1734 256.553 47.6087V37.2494H263.068V47.8042C263.068 49.2376 262.786 50.6058 262.221 51.9088C261.657 53.1684 260.875 54.2978 259.876 55.2968C258.92 56.2523 257.791 57.0342 256.488 57.6423C255.185 58.2069 253.817 58.4893 252.383 58.4893ZM257.205 27.8674H262.352V33.1448H257.205V27.8674ZM274.772 58.4893H268.256V20.0491H274.772V58.4893ZM273.163 74.3865L271.534 68.7834L272.642 68.3925C273.989 67.8278 275.292 67.2632 276.551 66.6985C277.854 66.1339 278.984 65.4389 279.939 64.6136C281.85 63.0065 282.806 60.7913 282.806 57.968V36.0767H289.321V58.0332C289.191 60.509 288.735 62.5939 287.953 64.2879C287.215 66.0253 286.194 67.5021 284.891 68.7183C283.631 69.9344 282.111 70.9552 280.33 71.7804C278.549 72.6057 276.573 73.3441 274.401 73.9956L273.163 74.3865ZM288.8 23.1113H282.806V16.9869H288.8V23.1113ZM293.882 33.1448H287.823V26.9553H293.882V33.1448ZM283.783 33.1448H277.724V26.9553H283.783V33.1448ZM308.312 58.4893H301.797V22.6552H308.312V58.4893ZM297.237 21.8082L292.089 19.8536L292.415 19.2021C293.284 17.5081 294.435 16.0965 295.868 14.9672C297.302 13.7944 298.974 13.208 300.885 13.208L312.417 13.1429V18.6157H302.253C300.95 18.6157 299.93 18.8546 299.191 19.3324C298.496 19.8102 297.845 20.6355 297.237 21.8082Z" fill="#4E4E4E"/>
<path d="M24.6622 117.781H39.5495V127.357C39.5495 128.46 39.7526 129.505 40.1589 130.492C40.5652 131.478 41.1166 132.32 41.813 133.016C42.5676 133.771 43.4382 134.351 44.4249 134.757C45.4115 135.164 46.4563 135.367 47.559 135.367C48.6618 135.367 49.6775 135.164 50.6061 134.757C51.5928 134.351 52.4344 133.771 53.1309 133.016C53.8854 132.32 54.4658 131.478 54.8721 130.492C55.3364 129.505 55.5685 128.46 55.5685 127.357V112.296H70.4558V127.357C70.4558 130.492 69.8464 133.452 68.6275 136.237C67.4087 139.023 65.7546 141.432 63.6651 143.463C61.6337 145.553 59.2251 147.178 56.4391 148.339C53.6532 149.558 50.6932 150.167 47.559 150.167C44.4249 150.167 41.4648 149.587 38.6789 148.426C35.951 147.265 33.5423 145.669 31.4529 143.638C29.3635 141.664 27.7093 139.314 26.4905 136.586C25.2716 133.858 24.6622 130.927 24.6622 127.793V117.781ZM40.5942 101.326H51.5638V112.296H40.5942V101.326ZM110.92 118.042C111.848 118.042 112.487 118.738 112.835 120.131C113.241 121.466 113.444 123.237 113.444 125.442C113.444 127.706 113.27 129.534 112.922 130.927C112.632 132.262 111.964 132.929 110.92 132.929H107.002C106.48 135.483 105.667 137.659 104.564 139.459C103.462 141.258 102.098 142.796 100.472 144.073C98.9054 145.35 97.1062 146.424 95.0748 147.294C93.1014 148.165 90.9829 148.948 88.7194 149.645C88.5453 149.703 88.0809 149.848 87.3264 150.08C86.6299 150.312 85.8754 150.544 85.0629 150.777C84.3083 151.067 83.5828 151.299 82.8864 151.473C82.2479 151.705 81.8707 151.85 81.7546 151.908L77.6627 138.501C77.7788 138.443 78.1561 138.298 78.7945 138.066C79.433 137.834 80.1004 137.572 80.7969 137.282C81.5514 137.05 82.2479 136.818 82.8864 136.586C83.5828 136.354 83.9891 136.208 84.1052 136.15C84.3954 136.092 84.8597 135.918 85.4982 135.628C86.1946 135.338 86.9201 135.019 87.6747 134.67C88.4292 134.38 89.1257 134.061 89.7641 133.713C90.4606 133.423 90.9249 133.161 91.1571 132.929H90.6347C88.3131 132.929 86.1076 132.465 84.0181 131.536C81.9867 130.608 80.2165 129.389 78.7075 127.88C77.2565 126.313 76.0957 124.513 75.2251 122.482C74.3545 120.451 73.9192 118.332 73.9192 116.127C73.9192 113.863 74.3545 111.716 75.2251 109.684C76.0957 107.653 77.2565 105.883 78.7075 104.374C80.2165 102.806 81.9867 101.559 84.0181 100.63C86.1076 99.7013 88.3131 99.237 90.6347 99.237C93.0143 99.237 95.2199 99.7013 97.2513 100.63C99.2827 101.501 101.053 102.719 102.562 104.286C104.071 105.854 105.261 107.653 106.131 109.684C107.002 111.716 107.437 113.863 107.437 116.127V118.042H110.92ZM88.11 116.127C88.11 116.765 88.3711 117.345 88.8935 117.868C89.4159 118.332 89.9963 118.564 90.6347 118.564H93.2465V116.127C93.2465 115.372 92.9853 114.763 92.463 114.298C91.9986 113.776 91.3892 113.515 90.6347 113.515C89.9963 113.515 89.4159 113.776 88.8935 114.298C88.3711 114.763 88.11 115.372 88.11 116.127ZM148.045 118.042C148.161 118.042 148.19 117.781 148.132 117.258C148.132 116.736 148.132 116.417 148.132 116.301C148.132 115.894 148.016 115.575 147.784 115.343C147.609 115.053 147.377 114.85 147.087 114.734C146.855 114.56 146.623 114.443 146.391 114.385C146.158 114.269 146.013 114.211 145.955 114.211C145.317 114.095 144.417 113.921 143.256 113.689C142.154 113.457 140.877 113.225 139.426 112.992C138.033 112.702 136.524 112.412 134.899 112.122C133.332 111.774 131.764 111.454 130.197 111.164C126.483 110.468 122.478 109.713 118.183 108.901V98.1052L113.917 92.9686L128.195 81.4767L132.374 86.7874L137.685 82.4344L145.868 90.2698L138.642 98.2793C139.629 98.4534 140.645 98.6275 141.689 98.8017C142.734 98.9758 143.721 99.1499 144.649 99.324C145.636 99.4981 146.478 99.6723 147.174 99.8464C147.929 99.9625 148.451 100.05 148.741 100.108C150.424 100.456 152.078 101.036 153.704 101.849C155.329 102.661 156.78 103.793 158.057 105.244C159.392 106.637 160.465 108.378 161.278 110.468C162.09 112.499 162.497 114.966 162.497 117.868C162.497 119.957 162.09 121.931 161.278 123.788C160.523 125.587 159.479 127.183 158.144 128.576C156.809 129.911 155.242 130.985 153.442 131.797C151.643 132.552 149.699 132.929 147.609 132.929H110.957C109.912 132.929 109.245 132.262 108.955 130.927C108.606 129.534 108.432 127.706 108.432 125.442C108.432 123.237 108.635 121.466 109.042 120.131C109.39 118.738 110.028 118.042 110.957 118.042H148.045ZM185.029 132.929C184.275 138.211 182.388 142.477 179.37 145.727C176.352 148.977 172.347 151.357 167.356 152.866L162.394 154.433L158.563 141.026L162.742 139.372C164.773 138.559 166.543 137.514 168.053 136.237C169.562 135.019 170.316 133.19 170.316 130.753V107.072H185.29V116.823C185.29 117.636 185.61 118.042 186.248 118.042H189.73C190.659 118.042 191.298 118.738 191.646 120.131C192.052 121.466 192.255 123.237 192.255 125.442C192.255 127.706 192.081 129.534 191.733 130.927C191.443 132.262 190.775 132.929 189.73 132.929H185.029ZM233.755 131.014C231.549 132.291 229.082 132.929 226.355 132.929H189.702C188.658 132.929 187.99 132.262 187.7 130.927C187.352 129.534 187.177 127.706 187.177 125.442C187.177 123.237 187.381 121.466 187.787 120.131C188.135 118.738 188.774 118.042 189.702 118.042H226.79C226.906 118.042 226.935 117.781 226.877 117.258C226.877 116.736 226.877 116.417 226.877 116.301C226.877 115.894 226.761 115.575 226.529 115.343C226.355 115.053 226.122 114.85 225.832 114.734C225.6 114.56 225.368 114.443 225.136 114.385C224.904 114.269 224.758 114.211 224.7 114.211C224.062 114.095 223.162 113.921 222.002 113.689C220.899 113.457 219.622 113.225 218.171 112.992C216.778 112.702 215.269 112.412 213.644 112.122C212.077 111.774 210.51 111.454 208.943 111.164C205.228 110.468 201.223 109.713 196.928 108.901V98.1052L192.662 92.9686L206.94 81.4767L211.119 86.7874L216.43 82.4344L224.613 90.2698L217.387 98.2793C218.374 98.4534 219.39 98.6275 220.434 98.8017C221.479 98.9758 222.466 99.1499 223.394 99.324C224.381 99.4981 225.223 99.6723 225.919 99.8464C226.674 99.9625 227.196 100.05 227.486 100.108C229.169 100.456 230.824 101.036 232.449 101.849C234.074 102.661 235.525 103.793 236.802 105.244C238.137 106.695 239.21 108.465 240.023 110.555C240.836 112.644 241.242 115.14 241.242 118.042H244.724C245.711 118.042 246.378 118.738 246.727 120.131C247.133 121.466 247.336 123.237 247.336 125.442C247.336 127.706 247.162 129.534 246.814 130.927C246.523 132.262 245.827 132.929 244.724 132.929H241.329C238.485 132.929 235.96 132.291 233.755 131.014ZM256.881 118.042C257.52 118.042 257.839 117.636 257.839 116.823V101.501H272.726V117.084C272.726 119.232 272.291 121.292 271.42 123.266C270.608 125.181 269.476 126.864 268.025 128.315C266.632 129.708 264.978 130.84 263.063 131.71C261.147 132.523 259.087 132.929 256.881 132.929H244.693C243.648 132.929 242.981 132.262 242.691 130.927C242.342 129.534 242.168 127.706 242.168 125.442C242.168 123.237 242.371 121.466 242.778 120.131C243.126 118.738 243.764 118.042 244.693 118.042H256.881ZM244.693 151.647V140.59H267.241V151.647H244.693ZM305.894 105.592C307.113 106.521 308.041 107.595 308.68 108.814C309.318 110.032 309.782 111.222 310.073 112.383C310.421 113.544 310.595 114.589 310.595 115.517C310.653 116.446 310.682 117.084 310.682 117.433C310.682 119.406 310.276 121.35 309.463 123.266C308.709 125.123 307.635 126.777 306.242 128.228C304.849 129.621 303.195 130.753 301.28 131.623C299.422 132.494 297.42 132.929 295.272 132.929H276.642V118.129H295.795C296.085 118.071 296.259 117.926 296.317 117.694C296.433 117.403 296.346 117.142 296.056 116.91L279.427 105.331L287.437 93.1428L305.894 105.592Z" fill="#4E4E4E"/>
<path d="M432.155 2.19908C434.05 -0.113063 436.412 -0.369967 439.063 0.629106C442.581 1.95288 445.443 4.27215 448.211 6.71274C453.032 10.9624 457.399 15.6723 461.945 20.2038C485.227 43.4108 508.473 66.6535 531.77 89.8463C532.826 90.8953 532.965 91.3913 531.812 92.5366C503.253 120.975 474.74 149.462 446.231 177.947C445.543 178.635 445.118 179.31 444.03 178.221C429.497 163.671 414.907 149.17 400.335 134.655C400.213 134.533 400.124 134.373 400.021 134.234C400.581 133.62 401.312 133.727 402.015 133.791C412.163 134.733 421.868 132.963 431.231 129.071C432.051 128.728 432.836 128.286 433.746 128.229C434.621 128.25 435.092 128.917 435.63 129.452C438.289 132.089 440.965 134.712 443.559 137.409C444.536 138.423 445.204 138.59 446.299 137.491C461.314 122.416 476.357 107.369 491.439 92.3582C492.495 91.3056 492.128 90.7918 491.289 89.9605C484.374 83.0918 477.491 76.1911 470.601 69.2939C470.016 68.7052 469.378 68.1628 468.917 67.4564C468.246 66.1469 468.307 64.6875 468.086 63.2924C466.073 50.4364 460.828 39.1541 451.715 29.7878C447.412 25.3633 442.981 21.0637 438.638 16.6785C436.761 14.7803 434.988 12.7785 433.479 10.5699C432.301 8.84291 431.316 7.02674 431.302 4.83235C431.295 3.84041 431.463 2.94838 432.151 2.20265L432.155 2.19908Z" fill="#4E4E4E"/>
<path d="M434.163 128.475C430.153 130.045 426.196 131.775 421.978 132.735C415.27 134.262 408.505 135.104 401.619 134.248C401.094 134.184 400.555 134.234 400.024 134.234C390.786 133.02 382.108 130.198 374.176 125.238C370.134 122.712 366.369 119.815 363.044 116.389C357.456 110.638 351.579 105.168 346.249 99.1697C344.821 97.5641 343.665 95.7657 343.127 93.6356C342.766 92.2226 342.898 90.9167 343.994 89.8427C350.562 83.388 357.135 76.9404 363.711 70.4928C363.786 70.4179 363.922 70.4036 364.029 70.3608C364.225 70.6105 364.271 70.9067 364.211 71.2028C363.508 74.7281 365.181 77.4042 367.286 79.9447C370.633 83.9803 374.526 87.4877 378.208 91.195C380.884 93.8889 383.382 96.7862 386.422 99.0984C392.802 103.951 399.977 106.342 408.027 105.956C409.272 105.896 410.518 105.864 411.749 106.128C423.894 105.118 435.808 95.2948 439.58 82.6708C443.426 69.797 440.722 58.2434 431.48 48.4026C426.356 42.9505 420.776 37.9373 415.745 32.3889C413.822 30.2694 412.023 28.0679 411.328 25.1813C410.989 23.7861 411.256 22.5658 412.262 21.5739C418.781 15.1513 425.315 8.74652 431.848 2.33819C431.926 2.26326 432.058 2.23828 432.162 2.19189C430.677 6.76265 433.329 9.90259 435.98 12.9854C440.586 18.3376 445.778 23.1332 450.787 28.0929C460.371 37.584 466.077 49.0341 468.449 62.229C468.753 63.9096 468.963 65.608 469.22 67.2957C469.52 67.9487 469.691 68.6195 469.713 69.3546C470.187 86.1247 465.099 100.957 454.124 113.671C448.989 119.619 442.813 124.336 435.865 128.025C435.334 128.307 434.795 128.546 434.171 128.468L434.163 128.475Z" fill="#8CC63F"/>
<path d="M411.742 106.131C405.391 107.016 399.236 106.331 393.341 103.744C389.224 101.935 385.598 99.4231 382.444 96.1868C378.298 91.9336 374.048 87.7839 369.87 83.5663C368.072 81.7537 366.43 79.8091 365.042 77.654C363.576 75.3704 363.148 72.9619 364.022 70.3643C366.416 67.9273 368.411 67.5598 371.743 69.0298C374.766 70.3643 377.37 72.3446 379.797 74.5497C386.929 81.0258 393.523 88.0515 400.385 94.8023C404.199 98.5524 407.96 102.356 411.745 106.135L411.742 106.131Z" fill="#4E4E4E"/>
</svg>
