<svg viewBox="0 0 494 192" fill="none" xmlns="http://www.w3.org/2000/svg">
<path d="M485.95 103.49C484.78 105.09 484.97 107.06 484.54 108.85C478.94 132.24 459.4 149.94 435.69 153.13C432.78 153.52 429.89 153.57 426.99 153.57C380.68 153.57 334.37 153.56 288.06 153.62C285.98 153.62 285.29 153.29 285.29 150.98C285.37 107.85 285.37 64.7201 285.3 21.6001C285.3 19.5201 285.8 19.0201 287.88 19.0301C303.62 19.1301 319.36 19.1301 335.11 19.0301C337.18 19.0201 337.52 19.6601 337.51 21.5301C337.45 47.1701 337.51 72.8201 337.43 98.4601C337.43 100.57 337.81 101.21 340.1 101.2C368.92 101.1 397.74 101.14 426.56 101.13C431.21 101.13 433.91 98.0801 433.06 93.8601C432.48 91.0001 430.06 89.2501 426.56 89.2501C415.48 89.2301 404.4 89.2301 393.33 89.2301C379.5 89.2301 365.68 89.1901 351.85 89.2801C349.91 89.2901 349.37 88.8301 349.38 86.8501C349.47 71.1101 349.46 55.3801 349.38 39.6401C349.38 37.9401 349.93 36.9601 351.28 35.9901C367.11 24.6701 382.89 13.3001 398.68 1.93006C399.48 1.36006 400.2 0.690059 400.96 0.0600586H401.46C402.37 1.12006 402.15 2.42006 402.16 3.65006C402.18 13.5601 402.16 23.4601 402.17 33.3701C402.17 36.7501 402.26 36.8301 405.7 36.8301C413.7 36.8301 421.69 36.7401 429.69 36.8501C444.37 37.0501 456.88 42.6801 467.6 52.4601C475.72 59.8701 481.21 68.9601 484.46 79.4601C485.38 82.4301 485.28 85.5201 485.95 88.5001V92.0001C485.52 94.3301 485.52 96.6601 485.95 99.0001V103.5V103.49Z" fill="#2C2861"/>
<path d="M0.0500391 113.48C1.11004 111.83 0.970039 109.86 1.41004 108.06C6.94004 85.2 25.8 69.24 49.2 67.57C51.58 67.4 52.06 68.15 52.05 70.39C51.96 89.79 52 109.19 52 128.59C52 134.09 53.99 136.06 59.53 136.07C62.4967 136.07 63.98 134.583 63.98 131.61C63.98 111.13 64.01 90.65 63.94 70.17C63.94 68.15 64.4 67.51 66.52 67.52C82.18 67.61 97.84 67.61 113.5 67.52C115.54 67.51 115.99 68.12 115.97 70.04C115.88 79.78 115.98 89.52 115.88 99.26C115.86 101.17 116.45 101.61 118.28 101.6C130.36 101.52 142.44 101.5 154.51 101.61C156.64 101.63 156.96 100.85 156.92 99.02C156.82 93.28 156.92 87.53 156.86 81.79C156.85 80.5 157.11 79.67 158.41 79.06C174.78 71.28 191.12 63.45 207.47 55.63C207.76 55.49 208.09 55.45 208.63 55.29V57.89C208.63 88.95 208.6 120 208.69 151.06C208.69 153.52 208.02 154.04 205.65 154.03C176.66 153.94 147.68 154.01 118.69 153.91C116.31 153.91 115.84 154.63 115.87 156.82C115.98 166.56 115.87 176.3 115.96 186.04C115.98 188.14 115.56 188.9 113.25 188.88C95.09 188.78 76.93 188.85 58.78 188.82C30.95 188.76 7.04004 169.35 1.22004 142.18C0.850039 140.44 1.05004 138.56 0.0400391 136.96V132.96C0.460039 127.8 0.460039 122.63 0.0400391 117.47V113.47L0.0500391 113.48Z" fill="#BDA566"/>
<path d="M221 191.93C221 146.89 221.01 101.84 220.95 56.8C220.95 54.83 221.46 54.35 223.41 54.36C239.4 54.44 255.4 54.44 271.39 54.36C273.18 54.36 273.77 54.69 273.77 56.63C273.7 88.52 273.7 120.41 273.77 152.3C273.77 154.15 272.88 154.96 271.63 155.85C255.64 167.23 239.66 178.62 223.7 190.03C222.92 190.59 221.95 190.96 221.5 191.92H221V191.93Z" fill="#2C2861"/>
<path d="M0.0500391 117.48C0.920039 118.29 0.520039 119.34 0.530039 120.28C0.580039 123.74 0.560039 127.2 0.530039 130.66C0.530039 131.45 0.810039 132.33 0.0400391 132.97V117.48H0.0500391Z" fill="#C6B079"/>
<path d="M485.95 98.9902C485.15 96.6602 485.14 94.3302 485.95 91.9902V98.9902Z" fill="#3B3269"/>
<path d="M75.79 57.0201C72.55 57.0201 69.3 56.9601 66.06 57.0501C64.62 57.0901 64 56.7701 64.02 55.1501C64.1 48.5001 64.09 41.8501 64.02 35.2101C64.01 33.7701 64.51 33.3701 65.9 33.3801C72.63 33.4401 79.37 33.4401 86.1 33.3801C87.6 33.3701 87.91 33.9901 87.9 35.3101C87.86 41.9601 87.84 48.6101 87.9 55.2501C87.91 56.7201 87.36 57.0801 86 57.0501C82.59 56.9701 79.18 57.0201 75.78 57.0201H75.79Z" fill="#BDA566"/>
<path d="M195.51 191.4C192.27 191.4 189.02 191.34 185.78 191.43C184.34 191.47 183.94 190.98 183.95 189.58C184.01 182.93 184.01 176.28 183.95 169.62C183.94 168.22 184.37 167.75 185.79 167.76C192.61 167.82 199.43 167.81 206.25 167.75C207.45 167.74 207.63 168.21 207.62 169.2C207.6 176.1 207.59 183 207.62 189.9C207.62 191.14 207.1 191.43 205.98 191.42C202.49 191.37 198.99 191.4 195.5 191.4H195.51Z" fill="#BDA566"/>
<path d="M294.46 190L290.34 183.86V190H285.9V175.84H290.34V181.8L294.4 175.84H299.42L294.54 182.62L299.74 190H294.46ZM314.478 187.86H309.758L309.058 190H304.398L309.578 175.84H314.698L319.858 190H315.178L314.478 187.86ZM313.398 184.52L312.118 180.58L310.838 184.52H313.398ZM332.386 190L329.726 184.92H329.706V190H325.266V175.84H331.866C333.013 175.84 333.993 176.047 334.806 176.46C335.62 176.86 336.226 177.413 336.626 178.12C337.04 178.813 337.246 179.6 337.246 180.48C337.246 181.427 336.98 182.267 336.446 183C335.926 183.733 335.173 184.26 334.186 184.58L337.266 190H332.386ZM329.706 181.96H331.466C331.893 181.96 332.213 181.867 332.426 181.68C332.64 181.48 332.746 181.173 332.746 180.76C332.746 180.387 332.633 180.093 332.406 179.88C332.193 179.667 331.88 179.56 331.466 179.56H329.706V181.96ZM352.545 182.74C353.398 182.94 354.058 183.353 354.525 183.98C355.005 184.593 355.245 185.307 355.245 186.12C355.245 187.36 354.831 188.32 354.005 189C353.191 189.667 352.018 190 350.485 190H343.065V175.84H350.285C351.725 175.84 352.858 176.153 353.685 176.78C354.511 177.407 354.925 178.32 354.925 179.52C354.925 180.347 354.705 181.047 354.265 181.62C353.838 182.18 353.265 182.553 352.545 182.74ZM347.505 181.36H349.225C349.625 181.36 349.918 181.28 350.105 181.12C350.305 180.96 350.405 180.713 350.405 180.38C350.405 180.033 350.305 179.78 350.105 179.62C349.918 179.447 349.625 179.36 349.225 179.36H347.505V181.36ZM349.525 186.44C349.925 186.44 350.218 186.367 350.405 186.22C350.605 186.06 350.705 185.807 350.705 185.46C350.705 184.78 350.311 184.44 349.525 184.44H347.505V186.44H349.525ZM368.037 190.14C366.703 190.14 365.477 189.827 364.357 189.2C363.25 188.573 362.37 187.707 361.717 186.6C361.063 185.493 360.737 184.247 360.737 182.86C360.737 181.473 361.063 180.227 361.717 179.12C362.37 178.013 363.25 177.153 364.357 176.54C365.477 175.913 366.703 175.6 368.037 175.6C369.37 175.6 370.59 175.913 371.697 176.54C372.803 177.153 373.677 178.013 374.317 179.12C374.97 180.227 375.297 181.473 375.297 182.86C375.297 184.247 374.97 185.493 374.317 186.6C373.677 187.707 372.797 188.573 371.677 189.2C370.57 189.827 369.357 190.14 368.037 190.14ZM368.037 186C368.917 186 369.597 185.72 370.077 185.16C370.557 184.587 370.797 183.82 370.797 182.86C370.797 181.887 370.557 181.12 370.077 180.56C369.597 179.987 368.917 179.7 368.037 179.7C367.143 179.7 366.457 179.987 365.977 180.56C365.497 181.12 365.257 181.887 365.257 182.86C365.257 183.82 365.497 184.587 365.977 185.16C366.457 185.72 367.143 186 368.037 186ZM394.878 190H390.438L385.738 182.88V190H381.298V175.84H385.738L390.438 183.08V175.84H394.878V190Z" fill="#CEB365"/>
<path d="M403.484 190.16C402.711 190.16 402.091 189.953 401.624 189.54C401.158 189.127 400.924 188.607 400.924 187.98C400.924 187.34 401.158 186.813 401.624 186.4C402.091 185.973 402.711 185.76 403.484 185.76C404.244 185.76 404.858 185.973 405.324 186.4C405.791 186.813 406.024 187.34 406.024 187.98C406.024 188.607 405.791 189.127 405.324 189.54C404.858 189.953 404.244 190.16 403.484 190.16ZM423.651 180.7C423.651 181.593 423.444 182.407 423.031 183.14C422.618 183.86 422.004 184.433 421.191 184.86C420.391 185.287 419.418 185.5 418.271 185.5H416.511V190H412.071V175.84H418.271C420.004 175.84 421.331 176.28 422.251 177.16C423.184 178.04 423.651 179.22 423.651 180.7ZM417.771 182C418.691 182 419.151 181.567 419.151 180.7C419.151 179.833 418.691 179.4 417.771 179.4H416.511V182H417.771ZM433.899 186.64H438.179V190H429.459V175.84H433.899V186.64ZM448.316 175.84V183.82C448.316 184.473 448.456 184.993 448.736 185.38C449.03 185.753 449.496 185.94 450.136 185.94C450.776 185.94 451.25 185.753 451.556 185.38C451.863 184.993 452.016 184.473 452.016 183.82V175.84H456.436V183.82C456.436 185.167 456.156 186.32 455.596 187.28C455.036 188.227 454.27 188.94 453.296 189.42C452.323 189.9 451.236 190.14 450.036 190.14C448.836 190.14 447.77 189.9 446.836 189.42C445.916 188.94 445.196 188.227 444.676 187.28C444.156 186.333 443.896 185.18 443.896 183.82V175.84H448.316ZM468.291 190.14C466.598 190.14 465.198 189.747 464.091 188.96C462.998 188.16 462.405 186.993 462.311 185.46H467.031C467.098 186.273 467.458 186.68 468.111 186.68C468.351 186.68 468.551 186.627 468.711 186.52C468.885 186.4 468.971 186.22 468.971 185.98C468.971 185.647 468.791 185.38 468.431 185.18C468.071 184.967 467.511 184.727 466.751 184.46C465.845 184.14 465.091 183.827 464.491 183.52C463.905 183.213 463.398 182.767 462.971 182.18C462.545 181.593 462.338 180.84 462.351 179.92C462.351 179 462.585 178.22 463.051 177.58C463.531 176.927 464.178 176.433 464.991 176.1C465.818 175.767 466.745 175.6 467.771 175.6C469.505 175.6 470.878 176 471.891 176.8C472.918 177.6 473.458 178.727 473.511 180.18H468.731C468.718 179.78 468.618 179.493 468.431 179.32C468.245 179.147 468.018 179.06 467.751 179.06C467.565 179.06 467.411 179.127 467.291 179.26C467.171 179.38 467.111 179.553 467.111 179.78C467.111 180.1 467.285 180.367 467.631 180.58C467.991 180.78 468.558 181.027 469.331 181.32C470.225 181.653 470.958 181.973 471.531 182.28C472.118 182.587 472.625 183.013 473.051 183.56C473.478 184.107 473.691 184.793 473.691 185.62C473.691 186.487 473.478 187.267 473.051 187.96C472.625 188.64 472.005 189.173 471.191 189.56C470.378 189.947 469.411 190.14 468.291 190.14Z" fill="#2D2861"/>
</svg>
