<svg viewBox="0 0 294 295" fill="none" xmlns="http://www.w3.org/2000/svg">
<path fill-rule="evenodd" clip-rule="evenodd" d="M285.77 256.194H293.226V265.514C293.226 270.924 287.584 274.834 282.041 274.834C276.497 274.834 270.857 270.8 270.857 265.507V237.553H278.313C278.313 247.495 278.313 257.436 278.313 267.378H285.77V256.194" fill="#2B57AE"/>
<path fill-rule="evenodd" clip-rule="evenodd" d="M146.936 198.34C93.7034 198.34 50.2881 154.926 50.2881 101.692C50.2881 48.4616 93.7034 5.04549 146.936 5.04464C200.168 5.04464 243.583 48.4616 243.583 101.692C243.583 154.926 200.168 198.34 146.936 198.34ZM146.936 0.330591C91.107 0.330591 45.5732 45.8643 45.5732 101.692C45.5732 157.522 91.107 203.055 146.936 203.055C202.765 203.055 248.299 157.522 248.299 101.692C248.299 45.8643 202.765 0.330591 146.936 0.330591Z" fill="#2B57AE"/>
<path fill-rule="evenodd" clip-rule="evenodd" d="M155.57 139.792C176.321 139.438 186.646 137.861 186.92 160.428H155.568V149.316H175.41C175.441 144.581 170.22 145.945 155.568 145.745L155.57 139.792" fill="#2B57AE"/>
<path fill-rule="evenodd" clip-rule="evenodd" d="M141.973 139.792C121.221 139.438 110.897 137.861 110.623 160.428H141.975V149.316H122.132C121.906 144.775 127.225 145.945 141.975 145.745L141.973 139.792" fill="#2B57AE"/>
<path fill-rule="evenodd" clip-rule="evenodd" d="M120.729 136.309C111.919 120.713 100.248 118.029 90.0571 117.971C105.704 96.1425 133.975 112.973 137.789 135.919H131.675C128.847 124.676 114.687 112.117 112.345 115.998C111.164 117.954 125.705 125.649 126.546 135.722L120.729 136.309" fill="#2B57AE"/>
<path fill-rule="evenodd" clip-rule="evenodd" d="M117.271 137.591C114.718 138.161 112.944 139.51 111.95 141.639C107.48 133.223 98.2751 125.399 83.7446 127.634C85.4781 124.206 87.7886 122.163 88.2167 122.032C97.3876 119.219 113.756 128.289 117.271 137.591" fill="#2B57AE"/>
<path fill-rule="evenodd" clip-rule="evenodd" d="M146.652 135.924L146.629 80.8946C146.465 70.7364 139.728 61.0055 130.265 58.4361C135.786 66.8058 140.625 76.2719 140.694 86.5113L140.669 135.926L146.652 135.924Z" fill="#2B57AE"/>
<path fill-rule="evenodd" clip-rule="evenodd" d="M112.542 104.716L112.523 86.4722C112.266 83.0002 110.432 81.3039 105.836 81.6778L105.841 104.716C108.067 104.47 110.561 104.47 112.542 104.716" fill="#2B57AE"/>
<path fill-rule="evenodd" clip-rule="evenodd" d="M136.541 122.441V87.2693C136.267 73.3344 120.306 68.425 113.891 72.5383C115.488 74.441 116.531 76.7117 116.47 78.7989L116.405 105.131C119.964 106.236 123.059 107.955 125.882 110.288L125.861 93.254C126.106 91.106 129.36 90.7067 129.543 93.8065V113.234C132.49 116.057 134.823 119.127 136.541 122.441" fill="#2B57AE"/>
<path fill-rule="evenodd" clip-rule="evenodd" d="M148.313 59.8296C149.04 57.7103 150.862 56.3448 154.027 55.3093C150.422 49.5766 146.562 49.6782 142.598 55.1578C145.092 56.1773 146.904 57.7264 148.313 59.8296Z" fill="#2B57AE"/>
<path fill-rule="evenodd" clip-rule="evenodd" d="M148.441 74.665C150.083 66.5195 153.512 62.143 160.759 57.6735C156.07 55.5779 151.985 57.7539 148.314 63.1092C143.807 57.5424 139.741 55.7048 136.249 57.9282C142.716 61.5314 146.788 66.182 148.441 74.665Z" fill="#2B57AE"/>
<path fill-rule="evenodd" clip-rule="evenodd" d="M150.419 135.924L150.443 80.8943C150.606 70.7361 157.344 61.0052 166.806 58.4358C161.286 66.8055 156.446 76.2717 156.378 86.5111L156.402 135.924H150.419" fill="#2B57AE"/>
<path fill-rule="evenodd" clip-rule="evenodd" d="M179.841 137.244C182.315 138.092 184.205 139.491 185.12 141.639C189.591 133.223 197.959 125.399 212.488 127.634C211.442 124.564 209.675 121.854 208.402 121.545C198.703 119.195 183.423 127.421 179.841 137.244Z" fill="#2B57AE"/>
<path fill-rule="evenodd" clip-rule="evenodd" d="M176.244 136.113C185.054 120.518 196.823 118.028 207.014 117.97C191.366 96.1416 163.095 112.972 159.281 135.918H165.395C168.224 124.675 182.383 112.116 184.725 115.997C185.906 117.953 171.364 125.648 170.524 135.721L176.244 136.113Z" fill="#2B57AE"/>
<path fill-rule="evenodd" clip-rule="evenodd" d="M184.529 104.716L184.547 86.4722C184.804 83.0002 186.639 81.3039 191.234 81.6778L190.839 104.716C188.613 104.47 186.508 104.47 184.529 104.716Z" fill="#2B57AE"/>
<path fill-rule="evenodd" clip-rule="evenodd" d="M160.53 122.441V87.2693C160.805 73.3344 176.764 68.425 183.18 72.5383C181.584 74.441 180.541 76.7117 180.602 78.7989L180.667 105.131C177.106 106.236 174.012 107.955 171.188 110.288L171.21 93.254C170.965 91.106 167.711 90.7067 167.528 93.8065V113.234C164.582 116.057 162.249 119.127 160.53 122.441" fill="#2B57AE"/>
<path fill-rule="evenodd" clip-rule="evenodd" d="M148.721 139.863C151.33 139.863 153.456 141.99 153.456 144.597C153.456 147.204 151.329 149.33 148.721 149.33C146.114 149.33 143.988 147.204 143.988 144.597C143.988 141.99 146.114 139.863 148.721 139.863Z" fill="#2B57AE"/>
<path fill-rule="evenodd" clip-rule="evenodd" d="M148.827 154.459L156.717 165.505C152.312 166.03 149.747 167.871 149.025 171.028C147.776 167.871 145.212 166.03 141.333 165.505L148.827 154.459Z" fill="#2B57AE"/>
<path fill-rule="evenodd" clip-rule="evenodd" d="M201.161 67.245L198.975 68.2018C198.975 68.2018 198.892 68.459 199.16 68.9827C199.444 69.5394 200.764 74.8093 198.894 73.3888C198.36 72.9827 196.026 70.3067 195.981 70.2999C195.324 70.2001 193.649 71.1646 194.111 72.3245C194.573 73.4835 197.183 75.8194 198.375 75.6341C199.568 75.4488 202.329 73.9768 202.199 71.5343C202.07 69.0918 202.095 67.311 201.161 67.245" fill="#2B57AE"/>
<path fill-rule="evenodd" clip-rule="evenodd" d="M199.447 63.4629C199.447 63.4629 200.945 61.8749 200.093 61.7573C199.241 61.6406 198.645 61.9393 197.024 63.8098C195.403 65.6804 192.63 68.9942 192.548 69.4578C192.467 69.9206 193.934 69.9561 194.855 68.8834L194.9 68.8318L194.949 68.7742L195.002 68.7125L195.058 68.6465L195.118 68.5763L195.181 68.5027L195.248 68.424L195.317 68.3428L195.389 68.2582L195.464 68.1702L195.541 68.0797L195.621 67.9858L195.703 67.8893L195.787 67.7895L195.874 67.6888L195.961 67.5848L196.051 67.479L196.142 67.3716L196.235 67.2624L196.328 67.1516L196.423 67.0391L196.519 66.9265L196.616 66.8123L196.713 66.6973L196.81 66.5822L196.909 66.4663L197.008 66.3496L197.106 66.2337L197.204 66.1169L197.302 66.0018L197.4 65.8859L197.497 65.7717L197.593 65.6575L197.689 65.5442L197.784 65.4316L197.877 65.3208L197.969 65.2125H197.969L198.06 65.1051L198.15 64.9993L198.238 64.8953L198.322 64.7937H198.323L198.407 64.6947L198.489 64.5983L198.568 64.5044L198.645 64.413L198.719 64.325L198.79 64.2404H198.791L198.859 64.1592L198.925 64.0814L198.987 64.0069L199.046 63.9375H199.047L199.102 63.8707L199.155 63.8089L199.203 63.7523L199.247 63.6998L199.288 63.6516L199.324 63.6085L199.356 63.5712L199.383 63.5391L199.406 63.512L199.424 63.49L199.437 63.4748L199.445 63.4655L199.447 63.4629" fill="#2B57AE"/>
<path fill-rule="evenodd" clip-rule="evenodd" d="M194.656 60.339C194.656 60.339 194.662 59.4194 193.946 59.7451C193.23 60.0717 192.016 60.7062 192.176 61.5243C192.337 62.3424 192.299 63.3974 192.299 63.3974C192.299 63.3974 192.085 64.24 191.125 63.3881C190.163 62.5353 189.176 61.9753 189.114 61.5776C189.052 61.18 189.441 60.1377 188.068 60.3644C186.695 60.592 186.508 58.9871 186.604 58.5844C186.7 58.1817 186.481 57.7891 185.654 58.0463C184.826 58.3043 184.056 57.7248 184.159 56.8128C184.262 55.9008 183.422 56.51 182.611 56.1614C181.8 55.8128 180.238 55.1022 180.202 54.0015C180.165 52.9008 180.139 51.0353 179.928 50.1343C179.716 49.2325 179.49 48.2714 179.49 48.2714L186.135 48.4863C186.135 48.4863 187.485 48.2959 187.932 47.9059C188.379 47.5159 189.293 46.9524 187.258 46.9236C185.222 46.894 177.526 46.3865 177.526 46.3865L177.524 46.3873L177.521 46.3882L177.516 46.3898L177.508 46.3924L177.498 46.3949L177.486 46.3983L177.473 46.4025L177.457 46.4076L177.441 46.4135L177.422 46.4194L177.402 46.4262L177.38 46.4338L177.358 46.4414V46.4423L177.334 46.4507L177.308 46.46L177.282 46.4702L177.255 46.4812L177.227 46.4922L177.198 46.5049L177.168 46.5176L177.137 46.5311L177.107 46.5446L177.076 46.5599L177.044 46.5751L177.011 46.592L176.979 46.609L176.947 46.6259L176.914 46.6437L176.882 46.6631L176.85 46.6826L176.816 46.7028L176.785 46.7232L176.753 46.7443L176.722 46.7672C176.711 46.7748 176.702 46.7824 176.692 46.79C176.681 46.7976 176.672 46.8052 176.662 46.8137C176.652 46.8213 176.642 46.8298 176.632 46.8382C176.622 46.8458 176.613 46.8551 176.604 46.8628C176.594 46.8712 176.585 46.8797 176.576 46.8881C176.567 46.8974 176.559 46.9059 176.549 46.9152C176.541 46.9245 176.533 46.933 176.524 46.9423C176.516 46.9507 176.507 46.9609 176.5 46.9693C176.492 46.9786 176.483 46.9888 176.476 46.9981C176.468 47.0074 176.461 47.0176 176.455 47.0269C176.447 47.037 176.44 47.0463 176.434 47.0573C176.427 47.0666 176.421 47.0777 176.415 47.0878C176.409 47.098 176.403 47.1081 176.397 47.1191C176.391 47.1292 176.387 47.1394 176.382 47.1504C176.377 47.1614 176.372 47.1724 176.367 47.1834C176.362 47.1944 176.358 47.2054 176.356 47.2164C176.352 47.2283 176.348 47.2384 176.345 47.2502C176.341 47.2621 176.339 47.2731 176.336 47.2849C176.334 47.2967 176.331 47.3086 176.33 47.3205C176.328 47.3323 176.326 47.3441 176.325 47.3568C176.324 47.3687 176.324 47.3805 176.324 47.3932C176.323 47.4059 176.324 47.4186 176.324 47.4313C176.324 47.4431 176.325 47.4558 176.327 47.4693C176.328 47.482 176.33 47.4947 176.332 47.5074C176.335 47.521 176.337 47.5345 176.341 47.5472C176.343 47.5607 176.346 47.5742 176.351 47.5878C176.355 47.6013 176.358 47.6149 176.363 47.6284C176.368 47.6428 176.374 47.6563 176.38 47.6707C176.386 47.6842 176.392 47.6986 176.399 47.713C176.406 47.7274 176.413 47.7418 176.422 47.7562C176.924 48.6842 178.071 51.1411 178.109 52.2418C178.145 53.3424 177.26 52.9482 176.176 52.3788C175.09 51.8086 173.334 51.0802 174.077 49.3848C174.82 47.6876 178.316 41.3822 178.316 41.3822C178.316 41.3822 178.879 39.7282 176.983 40.966C175.086 42.2045 176.151 42.5565 174.501 45.3856C172.852 48.2139 170.739 52.4507 173.252 53.6995C175.764 54.9482 176.604 54.7502 177.044 54.4575C177.483 54.1648 177.926 54.0286 177.926 54.0286V54.0294L177.925 54.0336L177.924 54.0404L177.923 54.0489L177.923 54.0607L177.921 54.0742L177.919 54.0895L177.918 54.1081L177.917 54.1284L177.916 54.1504V54.1512L177.914 54.1758L177.913 54.2028L177.912 54.2307V54.2612L177.912 54.2934V54.2942L177.912 54.328V54.3289V54.3644L177.914 54.4016L177.915 54.4414L177.917 54.482L177.92 54.5252L177.923 54.5683L177.928 54.614L177.932 54.6605L177.938 54.7087L177.944 54.7578L177.95 54.8078V54.8086L177.959 54.8594L177.968 54.9126L177.978 54.9659C177.981 54.9845 177.985 55.0023 177.989 55.021C177.993 55.0396 177.997 55.0582 178.001 55.0768L178.015 55.1334C178.019 55.1521 178.024 55.1716 178.029 55.1902V55.191C178.034 55.2096 178.04 55.2291 178.045 55.2485C178.05 55.268 178.056 55.2874 178.062 55.3069C178.068 55.3272 178.075 55.3466 178.082 55.3661C178.087 55.3864 178.093 55.4067 178.101 55.4262C178.108 55.4465 178.115 55.4668 178.121 55.4871C178.129 55.5074 178.137 55.5277 178.145 55.548C178.153 55.5683 178.16 55.5886 178.169 55.6098C178.178 55.6301 178.187 55.6504 178.195 55.6715C178.204 55.6918 178.214 55.713 178.223 55.7333C178.232 55.7545 178.242 55.7747 178.252 55.7959C178.262 55.817 178.272 55.8374 178.283 55.8585C178.294 55.8788 178.304 55.8999 178.315 55.9211C178.327 55.9422 178.338 55.9634 178.35 55.9837C178.363 56.0049 178.373 56.026 178.386 56.0472C178.399 56.0675 178.412 56.0886 178.425 56.1098C178.437 56.1301 178.451 56.1512 178.465 56.1724C178.478 56.1927 178.493 56.2138 178.506 56.235C178.522 56.2561 178.537 56.2764 178.551 56.2967C178.566 56.3179 178.582 56.339 178.598 56.3594C178.613 56.3805 178.63 56.4008 178.647 56.4219C178.663 56.4422 178.681 56.4626 178.698 56.4829C178.714 56.5032 178.732 56.5243 178.751 56.5446C178.768 56.5641 178.787 56.5844 178.806 56.6056C178.824 56.625 178.844 56.6453 178.862 56.6648C178.883 56.6851 178.902 56.7045 178.923 56.7248C178.944 56.7443 178.965 56.7637 178.985 56.7832C179.006 56.8026 179.028 56.823 179.05 56.8416C179.072 56.8611 179.095 56.8805 179.118 56.9C179.141 56.9186 179.165 56.9372 179.187 56.9558C179.211 56.9744 179.236 56.9939 179.26 57.0116C180.838 58.1952 182.078 58.3475 182.078 58.3475V58.3483V58.3492V58.3526V58.3568V58.3678V58.3746V58.383V58.3923L182.079 58.4017V58.4126L182.08 58.4245L182.081 58.438L182.082 58.4516L182.083 58.4659L182.084 58.4812L182.086 58.4972H182.087L182.088 58.5141L182.09 58.5319H182.091L182.093 58.5497H182.093L182.096 58.5692L182.099 58.5886L182.102 58.6089L182.106 58.6301L182.11 58.6512L182.115 58.6741L182.121 58.6961L182.126 58.7197L182.132 58.7435L182.138 58.7671L182.145 58.7925L182.153 58.817L182.161 58.8424L182.17 58.8687L182.179 58.8949L182.189 58.9211L182.199 58.9482L182.21 58.9752L182.222 59.0032L182.235 59.0311L182.247 59.0582L182.261 59.0861L182.276 59.1148L182.291 59.1436L182.307 59.1724L182.323 59.2003L182.341 59.229L182.359 59.2578L182.379 59.2866L182.398 59.3153L182.419 59.3441L182.441 59.3729L182.463 59.4016L182.488 59.4304L182.511 59.4583L182.537 59.4871C182.546 59.4955 182.555 59.5057 182.563 59.515L182.592 59.5429C182.6 59.5522 182.61 59.5615 182.62 59.5708C182.63 59.5802 182.639 59.5886 182.649 59.5979C182.659 59.6072 182.669 59.6165 182.68 59.625C182.69 59.6343 182.701 59.6436 182.711 59.6521C182.722 59.6614 182.733 59.6698 182.743 59.6783C182.755 59.6876 182.766 59.696 182.777 59.7054C183.511 60.262 184.394 60.2443 184.394 60.2443C184.394 60.2443 184.357 61.2993 185.076 61.7959C185.795 62.2933 186.98 62.6174 186.98 62.6174V62.6182V62.6199V62.6224L186.979 62.6267V62.6309L186.978 62.6368V62.6436V62.6521V62.6613V62.6707V62.6817V62.6944L186.979 62.707L186.98 62.7206L186.982 62.7358L186.983 62.751L186.985 62.7688L186.988 62.7857L186.99 62.8052L186.994 62.8238L186.998 62.845L187.002 62.8661L187.006 62.8881L187.012 62.9109L187.019 62.9346L187.026 62.9591L187.033 62.9854L187.042 63.0116L187.051 63.0378L187.061 63.0666L187.072 63.0945L187.083 63.1241L187.096 63.1546L187.11 63.1859L187.125 63.2172L187.141 63.2493L187.157 63.2824L187.175 63.3162L187.193 63.3509L187.214 63.3864L187.235 63.4219L187.257 63.4583L187.281 63.4956L187.306 63.5336L187.332 63.5725L187.36 63.6114L187.39 63.6512C187.399 63.6647 187.41 63.6775 187.42 63.691L187.452 63.7324L187.485 63.7739L187.521 63.8153L187.557 63.8585L187.595 63.9008V63.9016C187.608 63.916 187.621 63.9304 187.635 63.9448L187.676 63.9888C187.691 64.004 187.705 64.0184 187.72 64.0336C187.735 64.0488 187.749 64.0641 187.764 64.0793C187.78 64.0937 187.796 64.1089 187.812 64.1241C187.827 64.1402 187.843 64.1554 187.859 64.1707C187.876 64.1859 187.893 64.202 187.91 64.2181C187.927 64.2333 187.945 64.2485 187.961 64.2646C187.98 64.2806 187.998 64.2959 188.016 64.312C188.034 64.328 188.054 64.3441 188.072 64.3602C188.092 64.3762 188.11 64.3915 188.13 64.4084C189.388 65.4448 190.945 67.0759 192.132 65.6554C193.32 64.2358 194.45 63.2409 194.656 60.339" fill="#2B57AE"/>
<path fill-rule="evenodd" clip-rule="evenodd" d="M167.085 46.7463C167.085 46.7463 168.771 47.1743 168.688 48.3038C168.621 49.2065 166.508 48.8579 167.085 46.7463ZM168.189 44.1346C167.983 43.7826 166.656 45.5238 166.448 45.819L166.439 45.8325L166.43 45.8461L166.421 45.8596L166.414 45.8723L166.406 45.8859L166.398 45.8985L166.392 45.9112L166.385 45.9239L166.38 45.9366L166.375 45.9485L166.37 45.9603L166.365 45.9721L166.36 45.984L166.356 45.9958L166.353 46.006L166.349 46.0178L166.346 46.0288L166.344 46.039L166.342 46.05L166.34 46.0601L166.338 46.0703L166.337 46.0804L166.336 46.0897H166.335L166.334 46.0999V46.1084L166.333 46.1177V46.1269V46.1354V46.1439C166.333 46.1523 166.334 46.1599 166.335 46.1676L166.336 46.176C166.338 46.2006 166.344 46.2217 166.349 46.2403C166.354 46.2556 166.36 46.2683 166.365 46.2776L166.367 46.281L166.369 46.2835L166.37 46.2852L166.372 46.2902L166.373 46.2919H166.374L166.375 46.2928L166.376 46.2945V46.2953L166.376 46.2962C166.376 46.2962 166.041 46.6363 165.374 47.5923C164.708 48.5474 164.524 50.6498 166.792 51.209C169.059 51.7674 170.222 48.8046 170.572 46.7556C170.92 44.7065 168.189 44.1346 168.189 44.1346" fill="#2B57AE"/>
<path fill-rule="evenodd" clip-rule="evenodd" d="M186.61 45.0845L185.908 45.7554L181.252 45.5456L181.996 44.9262L186.61 45.0845" fill="#2B57AE"/>
<path fill-rule="evenodd" clip-rule="evenodd" d="M159.831 44.2238L159.79 44.2204L159.746 44.217L159.698 44.2128L159.646 44.2077L159.591 44.2034L159.534 44.1975L159.472 44.1916L159.409 44.1857L159.342 44.1789L159.272 44.1713L159.201 44.1637L159.127 44.1561L159.051 44.1476L158.973 44.14L158.893 44.1307L158.81 44.1214L158.728 44.1129L158.642 44.1028L158.556 44.0935L158.469 44.0833L158.379 44.0731L158.29 44.063L158.201 44.052L158.108 44.0419L158.018 44.0308L157.926 44.0207L157.833 44.0097L157.742 43.9996L157.649 43.9885L157.558 43.9776L157.465 43.9666L157.375 43.9556L157.284 43.9445L157.194 43.9344L157.106 43.9234L157.017 43.9133L156.931 43.9022L156.845 43.8921L156.761 43.882L156.679 43.8718L156.598 43.8625L156.519 43.8523L156.442 43.8439L156.368 43.8346L156.296 43.8253L156.226 43.8168L156.158 43.8092L156.093 43.8007L156.031 43.7931L155.973 43.7864L155.917 43.7787L155.865 43.7728L155.816 43.7669L155.77 43.761L155.728 43.7551L155.69 43.7508L155.657 43.7466L155.626 43.7432L155.6 43.7398L155.579 43.7373L155.562 43.7347L155.55 43.733H155.542L155.54 43.7322C155.54 43.7322 159.668 41.486 161.261 43.1662C162.852 44.8456 160.661 44.283 159.831 44.2238V44.2238ZM160.709 40.2297C157.885 39.5123 154.374 43.2297 154.374 43.2297C153.592 43.2195 153.506 43.1629 153.016 42.4327C152.526 41.7018 152.294 41.5444 151.55 42.4632C150.806 43.3811 149.299 42.9243 148.771 42.1366C148.244 41.349 147.698 41.9767 147.45 42.316C147.202 42.6544 146.371 42.7424 145.542 42.6832C144.712 42.6248 144.376 42.1815 145.415 41.0706C146.453 39.9607 144.221 38.8092 142.509 38.9843C140.798 39.1595 141.436 38.9226 140.302 39.7881C139.168 40.6535 139.942 41.2974 140.186 41.349C140.429 41.4006 140.92 41.2119 141.207 41.6544C141.495 42.0977 141.637 42.4902 141.637 42.4902C141.637 42.4902 140.706 42.7229 139.237 43.096C137.767 43.4691 137.003 42.0926 136.525 41.2567C136.046 40.42 134.981 39.6264 133.754 40.1975C132.525 40.7686 130.114 42.3024 129.607 43.9073C129.099 45.5131 130.208 46.6984 131.428 46.7618C132.648 46.8253 133.382 46.6874 131.851 48.0858C130.321 49.4835 127.318 49.6882 125.976 49.3819C124.634 49.0757 124.696 46.1434 124.855 45.1688C125.013 44.1941 124.242 43.3549 124.081 44.5249C123.921 45.695 123.712 46.8151 123.882 48.9657C124.051 51.1163 125.786 52.9928 129.459 52.0613C133.134 51.129 134.981 47.7813 135.146 46.1721C135.312 44.5621 133.262 44.4886 131.946 44.277C130.63 44.0664 131.322 43.3422 133.138 42.6315C134.954 41.9217 135.329 43.1459 135.855 44.129C136.38 45.1129 137.298 46.0029 138.666 45.9209C138.687 45.92 138.708 45.9183 138.73 45.9166C138.752 45.9149 138.775 45.9124 138.797 45.9099C138.82 45.9073 138.843 45.9048 138.866 45.9014C138.888 45.898 138.911 45.8946 138.935 45.8913C138.959 45.8879 138.982 45.8828 139.006 45.8794C139.03 45.8743 139.054 45.8701 139.078 45.865C139.102 45.86 139.128 45.8549 139.152 45.8498C139.177 45.8447 139.201 45.8388 139.227 45.8329C139.252 45.827 139.278 45.8211 139.303 45.8151C139.328 45.8084 139.354 45.8016 139.379 45.7948C139.405 45.788 139.431 45.7813 139.457 45.7737C139.483 45.766 139.509 45.7593 139.536 45.7517L139.615 45.728L139.695 45.7034L139.775 45.6772L139.855 45.6501L139.937 45.6222L140.019 45.5935L140.1 45.5647L140.182 45.5342L140.264 45.503L140.346 45.4716L140.427 45.4386L140.509 45.4056L140.59 45.3727L140.67 45.3397L140.75 45.3058V45.305L140.83 45.2711L140.91 45.2364L140.987 45.2026L141.064 45.1679L141.14 45.1332L141.217 45.0985L141.291 45.0647L141.364 45.03L141.436 44.9962L141.507 44.9623L141.575 44.9293H141.576L141.643 44.8963L141.709 44.8642L141.774 44.832L141.836 44.8016V44.8007L141.897 44.7711L141.955 44.7407H141.956L142.013 44.7119L142.067 44.6848L142.119 44.6569L142.169 44.6307L142.217 44.6062L142.263 44.5824L142.305 44.5596L142.345 44.5393L142.383 44.519L142.417 44.5004L142.449 44.4835L142.478 44.4683V44.4674L142.503 44.4539L142.526 44.442L142.546 44.431L142.562 44.4226L142.574 44.4149L142.583 44.4099L142.589 44.4073L142.591 44.4056C142.591 44.4056 143.607 45.4674 144.631 45.5291C144.647 45.53 144.663 45.5308 144.679 45.5308C144.696 45.5317 144.712 45.5317 144.728 45.5325C144.745 45.5325 144.761 45.5317 144.778 45.5308C144.795 45.5308 144.812 45.53 144.829 45.5291C144.846 45.5283 144.863 45.5275 144.88 45.5258C144.898 45.525 144.915 45.5232 144.932 45.5215C144.949 45.5198 144.966 45.5182 144.984 45.5156C145.002 45.5139 145.019 45.5114 145.036 45.5089C145.054 45.5072 145.072 45.5038 145.09 45.5013C145.107 45.4987 145.125 45.4953 145.143 45.4928C145.161 45.4894 145.179 45.486 145.197 45.4818L145.251 45.4716C145.269 45.4674 145.288 45.4632 145.305 45.4598C145.323 45.4556 145.342 45.4513 145.36 45.4462C145.378 45.4429 145.396 45.4378 145.415 45.4327L145.469 45.4184L145.524 45.4039L145.579 45.3879L145.633 45.371L145.687 45.354L145.741 45.3363L145.795 45.3185L145.849 45.299L145.903 45.2804L145.956 45.261L146.009 45.2407L146.061 45.2204L146.113 45.2001L146.163 45.1789L146.214 45.1578L146.264 45.1374L146.313 45.1163L146.361 45.0951L146.41 45.074L146.456 45.052L146.502 45.0317L146.547 45.0105L146.591 44.9903L146.634 44.9691L146.675 44.9497L146.717 44.9293L146.756 44.9099L146.794 44.8904L146.831 44.8718L146.867 44.8532L146.901 44.8363L146.934 44.8185L146.965 44.8024L146.995 44.7864L147.024 44.7711L147.05 44.7567L147.074 44.7432L147.097 44.7305H147.098L147.119 44.7187H147.12L147.139 44.7068L147.157 44.6975L147.173 44.6882L147.187 44.6806L147.199 44.6738L147.208 44.6679L147.217 44.6637L147.222 44.6603L147.226 44.6578L147.227 44.6569C147.227 44.6569 148.533 45.6501 149.607 45.6628C149.624 45.6628 149.64 45.6628 149.658 45.6628C149.674 45.6628 149.691 45.6628 149.707 45.662C149.725 45.662 149.741 45.6611 149.758 45.6603L149.809 45.6577C149.825 45.6569 149.842 45.6552 149.858 45.6544C149.875 45.6527 149.891 45.651 149.908 45.6493L149.957 45.6442C149.974 45.6425 149.99 45.64 150.007 45.6383L150.056 45.6315L150.104 45.6239C150.121 45.6214 150.136 45.6188 150.153 45.6154L150.201 45.607L150.249 45.5977L150.297 45.5876L150.343 45.5765L150.39 45.5655L150.437 45.5537L150.481 45.5419L150.527 45.5291L150.573 45.5156L150.617 45.5021L150.66 45.4885L150.704 45.475L150.746 45.4598L150.789 45.4462V45.4454L150.83 45.431H150.831L150.871 45.4158L150.91 45.4005L150.95 45.3853L150.989 45.3693L151.027 45.354L151.064 45.338L151.101 45.3227L151.136 45.3075L151.171 45.2914L151.205 45.2762L151.238 45.261L151.27 45.2458L151.301 45.2313L151.332 45.2161L151.361 45.2018L151.389 45.1874L151.416 45.1738L151.443 45.1595L151.469 45.1467L151.492 45.1341V45.1332L151.515 45.1214L151.537 45.1095L151.558 45.0977L151.577 45.0867L151.596 45.0766L151.613 45.0664L151.629 45.0571L151.644 45.0486L151.657 45.0402L151.669 45.0334L151.68 45.0266L151.689 45.0207L151.697 45.0156L151.704 45.0122L151.709 45.0088L151.712 45.0072L151.715 45.0055V45.0046C151.715 45.0046 152.585 45.7474 153.218 45.9014C153.851 46.0554 158.482 46.7457 160.482 46.9175C162.482 47.0875 163.138 45.3862 163.494 44.1696C163.85 42.953 163.533 40.9471 160.709 40.2297" fill="#2B57AE"/>
<path fill-rule="evenodd" clip-rule="evenodd" d="M119.477 46.8381L119.504 49.0547C119.504 49.0547 121.416 49.8779 119.437 50.1714C118.192 50.3567 117.346 49.5039 117.346 49.5039C117.346 49.5039 117.864 51.251 116.592 51.8432C115.32 52.4363 114.81 52.0378 114.81 52.0378L113.918 51.9582C113.918 51.9582 114.394 53.0928 113.083 54.1308C111.771 55.1681 110.903 55.5411 109.444 55.3465C107.986 55.1528 108.576 55.366 108.576 55.366L108.974 57.7442C108.974 57.7442 111.081 57.8677 111.602 58.1384C113.723 59.2399 110.891 63.9684 109.965 64.9887C109.076 65.9684 108.446 66.9066 110.598 66.168C112.75 65.4294 113.732 64.1367 113.845 62.8635C113.959 61.5893 113.561 59.2112 113.444 58.7205C113.327 58.2281 113.06 57.6266 113.06 57.6266C113.06 57.6266 114.372 56.9413 114.939 56.35C115.505 55.7577 115.551 55.2484 115.551 55.2484C115.551 55.2484 116.529 55.4328 117.737 54.4811C118.945 53.5293 118.729 52.7078 118.729 52.7078C118.729 52.7078 119.981 53.4295 121.327 52.3618C122.674 51.295 122.486 49.0953 121.61 48.119C121.596 48.1038 121.582 48.0885 121.569 48.0741C121.554 48.0581 121.541 48.0437 121.526 48.0293C121.512 48.0149 121.498 47.9997 121.484 47.9853C121.47 47.9718 121.455 47.9574 121.441 47.9439C121.426 47.9295 121.413 47.916 121.399 47.9024C121.383 47.8889 121.369 47.8753 121.355 47.8618L121.311 47.822L121.267 47.7831L121.223 47.7459L121.177 47.7087L121.133 47.6731L121.087 47.6376L121.042 47.6037L120.997 47.5708L120.952 47.5386L120.907 47.5065L120.861 47.476L120.816 47.4464L120.772 47.4168L120.727 47.3889L120.682 47.3618L120.638 47.3347L120.594 47.3093L120.55 47.284L120.507 47.2603L120.464 47.2366L120.421 47.2137L120.378 47.1918L120.337 47.1706L120.295 47.1512L120.255 47.1308L120.215 47.1122L120.175 47.0936L120.137 47.0767L120.099 47.0598L120.062 47.0437L120.025 47.0285V47.0276L119.989 47.0132L119.954 46.9989L119.921 46.9853L119.888 46.9726L119.856 46.9608L119.825 46.9489L119.795 46.938L119.767 46.9278L119.74 46.9185L119.712 46.9092L119.687 46.9007L119.663 46.8923L119.64 46.8846L119.619 46.8787L119.599 46.8728V46.8719L119.58 46.8669L119.563 46.861L119.547 46.8567L119.533 46.8525L119.52 46.8491L119.509 46.8457L119.499 46.8432L119.492 46.8415L119.486 46.8398L119.481 46.8381H119.478H119.477" fill="#2B57AE"/>
<path fill-rule="evenodd" clip-rule="evenodd" d="M101.917 63.7311L101.916 63.7531L101.914 63.7751C101.913 63.7819 101.912 63.7895 101.911 63.7971L101.908 63.8191L101.904 63.8419L101.899 63.8647L101.893 63.8876L101.888 63.9104L101.881 63.9333L101.874 63.9561L101.866 63.9798L101.859 64.0027L101.85 64.0247L101.842 64.0475L101.833 64.0703L101.823 64.0924L101.814 64.1143L101.805 64.1364L101.795 64.1575L101.784 64.1787L101.775 64.1989L101.765 64.2193L101.755 64.2395L101.745 64.259L101.734 64.2776L101.724 64.2962L101.714 64.314L101.705 64.3309V64.3318L101.696 64.3479L101.686 64.3639L101.677 64.3791L101.668 64.3935L101.66 64.4071L101.652 64.4197L101.645 64.4316L101.638 64.4426L101.631 64.4536L101.625 64.4629L101.62 64.4714L101.615 64.479L101.611 64.4849L101.607 64.49L101.605 64.4942L101.602 64.4967L101.602 64.4984L101.601 64.5001C101.601 64.5001 99.8893 64.9891 100.153 63.825C100.416 62.6609 101.333 63.1913 101.762 63.4231C101.767 63.4265 101.774 63.4299 101.781 63.4341C101.787 63.4375 101.793 63.4418 101.799 63.446C101.804 63.4502 101.81 63.4544 101.815 63.4587C101.82 63.4637 101.825 63.468 101.83 63.4722C101.835 63.4773 101.839 63.4823 101.844 63.4874C101.848 63.4925 101.852 63.4976 101.856 63.5027C101.86 63.5077 101.864 63.5137 101.867 63.5187C101.871 63.5238 101.874 63.5297 101.877 63.5348C101.88 63.5407 101.883 63.5466 101.886 63.5526C101.888 63.5585 101.891 63.5644 101.893 63.5703C101.896 63.5763 101.898 63.583 101.9 63.589C101.902 63.5949 101.904 63.6008 101.905 63.6076C101.907 63.6144 101.909 63.6203 101.91 63.627C101.911 63.6338 101.912 63.6406 101.913 63.6473C101.914 63.6541 101.915 63.6609 101.916 63.6677L101.917 63.6888V63.7091V63.7311ZM107.205 58.869C105.976 57.5399 104.99 56.3614 101.836 56.8183L102.817 58.7666C102.817 58.7666 102.905 59.2244 103.941 59.1237C104.977 59.0238 106.239 58.9113 105.419 60.1862C104.6 61.4612 103.923 62.2032 103.606 62.528C103.288 62.8529 102.756 63.0619 102.756 63.0619C102.756 63.0619 101.525 60.6744 100.372 60.6355C99.2209 60.5966 97.3876 61.3639 98.9384 64.4866C99.9409 66.5052 100.396 66.6913 100.592 66.5712L100.618 66.5306L100.652 66.4756L100.679 66.4307L100.701 66.3944L100.718 66.369L100.727 66.3529L100.73 66.3478C100.73 66.3478 100.7 66.5052 100.592 66.5712L100.578 66.594L100.533 66.6668L100.483 66.7472L100.428 66.836L100.368 66.9324L100.303 67.0365L100.234 67.1473L100.16 67.2658L100.082 67.3902L100 67.5213L99.9138 67.6575L99.8241 67.7996L99.7302 67.9477L99.6338 68.0999L99.534 68.2573L99.4307 68.4189L99.325 68.5847L99.2158 68.7548L99.1042 68.9274L98.9908 69.1033V69.1042L98.8749 69.2827L98.7565 69.4646L98.6372 69.649L98.5153 69.8343V69.8351L98.3927 70.0229L98.2674 70.2116V70.2125L98.1414 70.402L98.0145 70.5932L97.8867 70.7844L97.759 70.9756L97.6295 71.1668L97.5001 71.358L97.3707 71.5483L97.2412 71.737L97.1118 71.9248L96.9823 72.1109C96.9392 72.1727 96.8969 72.2336 96.8537 72.2954C96.8106 72.3563 96.7683 72.4172 96.7252 72.4764C96.6829 72.5373 96.6405 72.5974 96.5982 72.6566C96.5559 72.7159 96.5136 72.7742 96.4713 72.8326C96.4299 72.891 96.3884 72.9485 96.3461 73.0052L96.2226 73.1752C96.1812 73.2319 96.1405 73.2869 96.0999 73.3419C96.0593 73.396 96.0187 73.4502 95.979 73.5027C95.9392 73.5568 95.8994 73.6084 95.8597 73.6608C95.8208 73.7124 95.7818 73.7632 95.7429 73.8131C95.704 73.8631 95.666 73.9121 95.6279 73.9612C95.5898 74.0094 95.5526 74.0568 95.5154 74.1033C95.4781 74.1498 95.4409 74.1955 95.4053 74.2395C95.369 74.2844 95.3326 74.3284 95.2971 74.3715C95.2624 74.4138 95.2269 74.4553 95.193 74.495C95.1583 74.5356 95.1245 74.5754 95.0907 74.6135C95.0577 74.6524 95.0247 74.6888 94.9925 74.7251C94.9604 74.7607 94.9282 74.7954 94.8969 74.8292C94.8665 74.8622 94.836 74.8952 94.8055 74.9257C94.7751 74.957 94.7463 74.9857 94.7175 75.0145C94.6888 75.0424 94.6609 75.0703 94.6329 75.0957C94.6059 75.1211 94.5788 75.1448 94.5526 75.1676C92.8825 76.6236 91.8588 76.5965 91.2615 76.4468C90.6651 76.2979 89.3622 75.7971 90.8885 77.7615C92.4138 79.7268 95.7632 78.8707 97.726 75.9316C99.6888 72.9934 101.75 70.0323 102.211 68.8216C102.671 67.6118 102.925 66.9282 102.925 66.9282L102.927 66.9274L102.931 66.9231L102.939 66.9172L102.95 66.9096L102.964 66.8986L102.981 66.8859L102.999 66.8715L103.021 66.8546L103.046 66.8352L103.072 66.814L103.102 66.792L103.134 66.7666L103.168 66.7396L103.203 66.7116L103.242 66.6812L103.282 66.649L103.324 66.6152L103.368 66.5805L103.413 66.5433L103.46 66.5052V66.5043L103.509 66.4654L103.56 66.424L103.612 66.3808L103.665 66.3377L103.719 66.292L103.774 66.2455L103.831 66.1981L103.888 66.1499L103.948 66.1L104.007 66.0483L104.067 65.9967L104.128 65.9443L104.189 65.8902L104.251 65.836L104.313 65.781L104.376 65.7252L104.439 65.6676L104.502 65.6101L104.566 65.5526L104.629 65.4942L104.692 65.435L104.756 65.3758L104.818 65.3157L104.881 65.2556L104.943 65.1947L105.004 65.1346L105.065 65.0737L105.126 65.012L105.186 64.9511L105.245 64.8893L105.303 64.8284L105.36 64.7666L105.416 64.7057L105.471 64.6448L105.525 64.5839C105.542 64.5636 105.56 64.5433 105.578 64.523C105.595 64.5027 105.612 64.4824 105.629 64.4629C105.646 64.4426 105.662 64.4231 105.678 64.4028C105.695 64.3825 105.711 64.3631 105.727 64.3428C105.742 64.3233 105.757 64.3038 105.773 64.2835C105.788 64.2641 105.803 64.2446 105.818 64.2252C105.833 64.2057 105.847 64.1863 105.86 64.1668C105.875 64.1473 105.888 64.1279 105.902 64.1084C105.916 64.0898 105.928 64.0712 105.941 64.0518C106.755 62.8411 108.434 60.1989 107.205 58.869" fill="#2B57AE"/>
<path fill-rule="evenodd" clip-rule="evenodd" d="M195.314 58.7731C195.578 58.73 196.949 58.3323 196.93 57.9489C196.903 57.4462 196.651 56.319 196.358 56.3647C196.005 56.4121 194.731 56.7015 194.668 57.1788C194.66 57.3117 194.874 58.8561 195.314 58.7731Z" fill="#2B57AE"/>
<path fill-rule="evenodd" clip-rule="evenodd" d="M149.581 37.4647C149.742 37.2506 150.454 36.0126 150.173 35.7502C149.807 35.4058 148.844 34.7686 148.663 35.0047C148.442 35.2839 147.726 36.3747 148.01 36.7632C148.096 36.8647 149.321 37.8286 149.581 37.4647" fill="#2B57AE"/>
<path fill-rule="evenodd" clip-rule="evenodd" d="M94.702 68.9014C94.6614 68.6365 94.2764 67.2613 93.8922 67.2783C93.3903 67.2994 92.2606 67.5406 92.3029 67.8343C92.3478 68.188 92.6245 69.4642 93.1009 69.5319C93.2346 69.542 94.7799 69.3423 94.702 68.9014" fill="#2B57AE"/>
<path fill-rule="evenodd" clip-rule="evenodd" d="M189.041 53.561C189.046 53.0973 188.893 52.0911 188.637 51.9582C188.633 51.9557 188.628 51.9532 188.624 51.9523C188.62 51.9506 188.615 51.9489 188.611 51.9472L189.041 53.561Z" fill="#2B57AE"/>
<path fill-rule="evenodd" clip-rule="evenodd" d="M188.598 51.9444C188.593 51.9436 188.589 51.9436 188.584 51.9427C188.58 51.9427 188.575 51.9428 188.571 51.9436C188.215 51.969 186.927 52.1771 186.832 52.6494C186.817 52.7822 186.932 54.3368 187.377 54.2818L187.39 54.2801L187.405 54.2793L187.422 54.2759L187.439 54.2742L187.459 54.2708L187.479 54.2674L187.501 54.2631L187.525 54.2589L187.549 54.2547H187.549L187.574 54.2496C188.045 54.1565 189.041 53.8849 189.041 53.5608L188.598 51.9444" fill="#2B57AE"/>
<path fill-rule="evenodd" clip-rule="evenodd" d="M113.409 47.2435C112.929 47.092 111.785 46.9346 111.725 47.2257C111.647 47.5727 111.472 48.8675 111.898 49.0934C112.02 49.1476 113.542 49.4861 113.618 49.0452C113.669 48.782 113.775 47.3586 113.409 47.2435Z" fill="#2B57AE"/>
<path fill-rule="evenodd" clip-rule="evenodd" d="M105.014 70.3089C104.513 70.3283 103.382 70.5661 103.423 70.8606C103.467 71.2135 103.74 72.4913 104.216 72.5607C104.35 72.57 105.896 72.3754 105.819 71.9345C105.779 71.6696 105.399 70.2936 105.014 70.3089" fill="#2B57AE"/>
<path fill-rule="evenodd" clip-rule="evenodd" d="M135.796 35.9887C135.424 35.6502 134.453 35.0257 134.276 35.2644C134.058 35.5462 133.356 36.648 133.647 37.0322C133.735 37.132 134.973 38.079 135.228 37.7108C135.385 37.4942 136.08 36.2477 135.796 35.9887Z" fill="#2B57AE"/>
<path fill-rule="evenodd" clip-rule="evenodd" d="M191.109 55.106C191.114 54.6431 190.949 53.6496 190.691 53.5175C190.686 53.5158 190.682 53.5133 190.677 53.5116C190.672 53.5099 190.668 53.5082 190.665 53.5074L191.109 55.106" fill="#2B57AE"/>
<path fill-rule="evenodd" clip-rule="evenodd" d="M190.65 53.5032C190.646 53.5032 190.641 53.5023 190.637 53.5023C190.633 53.5023 190.628 53.5024 190.623 53.5032C190.268 53.5286 188.994 53.7215 188.886 54.209C188.869 54.3418 188.985 55.8956 189.429 55.8414L189.443 55.8406L189.458 55.838L189.474 55.8363L189.492 55.8329H189.493L189.511 55.8304L189.532 55.8262L189.554 55.8228L189.577 55.8177H189.578L189.603 55.8135L189.628 55.8075C190.103 55.7119 191.109 55.4301 191.109 55.1052L190.65 53.5032" fill="#2B57AE"/>
<path fill-rule="evenodd" clip-rule="evenodd" d="M115.486 45.7112C115.007 45.5606 113.873 45.4218 113.812 45.7129C113.734 46.0599 113.55 47.3352 113.984 47.5806C114.107 47.6348 115.629 47.9724 115.705 47.5324C115.756 47.2683 115.853 45.8263 115.486 45.7112Z" fill="#2B57AE"/>
<path fill-rule="evenodd" clip-rule="evenodd" d="M106.453 68.1649C105.951 68.1852 104.836 68.4365 104.878 68.731C104.921 69.0847 105.179 70.3465 105.671 70.4303C105.804 70.4404 107.35 70.2458 107.273 69.8049C107.234 69.5401 106.838 68.1496 106.453 68.1649" fill="#2B57AE"/>
<path fill-rule="evenodd" clip-rule="evenodd" d="M138.325 35.4716C137.954 35.1339 136.983 34.5306 136.805 34.7684C136.589 35.051 135.886 36.1308 136.178 36.5362C136.266 36.6369 137.504 37.5838 137.758 37.2166C137.916 36.9991 138.61 35.7305 138.325 35.4716Z" fill="#2B57AE"/>
<path fill-rule="evenodd" clip-rule="evenodd" d="M191.405 52.4181C191.425 51.9307 191.215 50.7891 190.919 50.8162C190.579 50.8568 189.29 51.0353 189.181 51.5219C189.165 51.6539 189.28 53.2093 189.725 53.1543L189.738 53.1526L189.753 53.1509L189.77 53.1493L189.787 53.1459L189.808 53.1433L189.828 53.1391L189.851 53.1349L189.874 53.1307L189.898 53.1264L189.924 53.1213C190.398 53.0248 191.405 52.7431 191.405 52.4181" fill="#2B57AE"/>
<path fill-rule="evenodd" clip-rule="evenodd" d="M112.999 44.6512C112.538 44.4904 111.385 44.3609 111.324 44.652C111.264 44.9897 111.063 46.2751 111.497 46.5197C111.619 46.5738 113.141 46.9124 113.217 46.4715C113.269 46.2083 113.365 44.7662 112.999 44.6512Z" fill="#2B57AE"/>
<path fill-rule="evenodd" clip-rule="evenodd" d="M149.775 286.047C153.863 284.741 157.231 281.403 157.231 277.313V276.767V276.475V276.182V275.89V275.598V275.306V275.014V274.721V274.429V274.137V273.845V273.553V273.261V272.968V272.675V272.384V272.092V271.799V271.508V271.215V270.923V270.631V270.339V270.046V269.754V269.462V269.17V268.878V268.585V268.293V268.001V267.708V267.417V267.125V266.832V266.539V266.248V265.956V265.663V265.372V265.079V264.786V264.494V264.203V263.91V263.618V263.326V263.033V262.741V262.449V262.157V261.865V261.572V261.28V260.989V260.942V258.066C157.231 252.773 151.591 248.738 146.046 248.738C140.866 248.738 134.862 252.37 134.862 258.066C134.862 260.549 134.862 263.033 134.862 265.516C134.862 270.925 140.505 274.835 146.046 274.835L148.017 274.674V267.379H142.319C142.319 263.651 142.319 259.923 142.319 256.195H149.775V260.942V261.321V261.4V261.787V261.841V262.253V262.266V262.676V262.72V263.071V263.186V263.452V263.651V263.819V264.117V264.173V264.514V264.583V264.843V265.049V265.159V265.466V265.516V265.761V265.981V266.045V266.322V266.447V266.588V266.847V266.913V267.098V267.34V267.379V267.576V267.806V267.845V268.029V268.248V268.311V268.461V268.671V268.778V268.877V269.079V269.244V269.28V269.477V269.674V269.71V269.868V270.063V270.176V270.258V270.452V270.642V270.649V270.846V271.047V271.108V271.25V271.456V271.574V271.665V271.879V272.039V272.097V272.32V272.505V272.55V272.786V272.972V273.029V273.28V273.438V273.538V273.804V273.904V274.081V274.365V274.369V274.661V274.835V274.967V275.284V275.302V275.613V275.768V275.954V276.233V276.307V276.675V276.7V277.055V277.166V277.45V277.632V277.86V278.098V278.285V278.564V278.727V279.03V279.185V286.021V286.047" fill="#2B57AE"/>
<path fill-rule="evenodd" clip-rule="evenodd" d="M160.959 286.047C165.048 284.741 168.416 281.403 168.416 277.313V277.184V276.857V276.528V276.2V275.873V275.544V275.216V274.889V274.56V274.232V273.905V273.576V273.248V272.92V272.593V272.264V271.936V271.609V271.281V270.953V270.626V270.297V269.969V269.641V269.313V268.985V268.657V268.329V268.001V267.673V267.346V267.017V266.689V266.362V266.033V265.705V265.378V265.05V264.722V264.394V264.066V263.738V263.41V263.082V262.754V262.426V262.098V261.77V261.442V261.114V260.942V256.195H175.872C175.872 259.923 175.872 263.651 175.872 267.379H170.174V274.835H174.686C177.908 274.835 181.165 273.514 183.326 271.343L183.33 274.858L189.626 274.835C192.849 274.835 196.079 273.514 198.241 271.343V274.835H206.853C219.313 274.835 208.546 274.835 221.006 274.835V267.379C211.065 267.379 223.096 267.379 213.153 267.379V259.923H221.006V252.467H215.018C209.607 252.467 205.697 258.11 205.697 263.651V267.379H198.241V237.555H190.785V267.379H183.329V265.516C183.329 263.033 183.329 260.549 183.329 258.066C183.329 252.37 177.324 248.738 172.143 248.738C166.599 248.738 160.959 252.773 160.959 258.066V260.942V261.124V261.4V261.56V261.841V261.997V262.266V262.434V262.676V262.871V263.071V263.307V263.452V263.745V263.819V264.173V264.181V264.514V264.618V264.843V265.055V265.159V265.466V265.491V265.761V265.928V266.045V266.322V266.365V266.588V266.802V266.847V267.098V267.239V267.34V267.576V267.675V267.806V268.029V268.112V268.248V268.461V268.549V268.671V268.877V268.986V269.079V269.28V269.423V269.477V269.674V269.859V269.868V270.063V270.258V270.296V270.452V270.649V270.733V270.846V271.047V271.17V271.25V271.456V271.607V271.665V271.879V272.043V272.097V272.32V272.48V272.55V272.786V272.917V273.029V273.28V273.353V273.538V273.791V273.804V274.081V274.227V274.365V274.661V274.664V274.967V275.101V275.284V275.538V275.613V275.954V275.974V276.307V276.411V276.675V276.848V277.055V277.285V277.45V277.721V277.86V278.159V278.285V278.594V278.727V279.032V279.185V286.021V286.047" fill="#2B57AE"/>
<path fill-rule="evenodd" clip-rule="evenodd" d="M71.4846 285.952C75.5734 284.645 78.9414 281.307 78.9414 277.217V276.766V276.474V276.181V275.889V275.596V275.305V275.013V274.72V274.428V274.136V273.843V273.552V273.26V272.967V272.674V272.383V272.09V271.798V271.507V271.214V270.921V270.629V270.337V270.045V269.753V269.461V269.168V268.876V268.584V268.292V268V267.707V267.415V267.123V266.831V266.538V266.247V265.954V265.662V265.37V265.078V264.785V264.493V264.201V263.909V263.617V263.325V263.032V262.74V262.448V262.156V261.864V261.571V261.279V260.987V260.846V258.065C78.9414 252.772 73.301 248.737 67.7562 248.737C62.576 248.737 56.5718 252.369 56.5718 258.065C56.5718 260.547 56.5718 263.031 56.5718 265.514C56.5718 270.924 62.2148 274.834 67.7562 274.834L69.7266 274.673V267.378H64.0286C64.0286 263.65 64.0286 259.921 64.0286 256.194H71.4846V260.846V261.188V261.304V261.631V261.744V262.072V262.17V262.513V262.58V262.951V262.975V263.356V263.388V263.722V263.823V264.076V264.259V264.418V264.693V264.746V265.063V265.125V265.37V265.557V265.665V265.95V265.988V266.226V266.418V266.493V266.75V266.848V267.001V267.244V267.277V267.48V267.705V267.71V267.933V268.133V268.152V268.366V268.56V268.575V268.781V268.983V268.987V269.183V269.381V269.414V269.577V269.772V269.842V269.967V270.162V270.268V270.357V270.553V270.695V270.751V270.951V271.121V271.154V271.359V271.548V271.569V271.782V271.975V272.001V272.225V272.403V272.455V272.69V272.831V272.933V273.184V273.26V273.442V273.689V273.708V273.984V274.118V274.27V274.548V274.565V274.87V274.979V275.188V275.411V275.517V275.843V275.858V276.211V276.277V276.579V276.712V276.959V277.147V277.354V277.585V277.764V278.024V278.189V278.464V278.63V278.905V279.088V284.342V285.952" fill="#2B57AE"/>
<path fill-rule="evenodd" clip-rule="evenodd" d="M96.0361 245.65L101.309 240.378L106.581 245.65L101.309 250.922L96.0361 245.65Z" fill="#2B57AE"/>
<path fill-rule="evenodd" clip-rule="evenodd" d="M113.321 228.093L118.594 222.821L123.866 228.093L118.594 233.366L113.321 228.093Z" fill="#2B57AE"/>
<path fill-rule="evenodd" clip-rule="evenodd" d="M276.428 289.536L281.7 284.264L286.973 289.536L281.7 294.808L276.428 289.536Z" fill="#2B57AE"/>
<path fill-rule="evenodd" clip-rule="evenodd" d="M281.699 281.878L286.972 276.606L292.244 281.878L286.972 287.151L281.699 281.878L276.427 287.151L271.154 281.878L276.427 276.606L281.699 281.878Z" fill="#2B57AE"/>
<path fill-rule="evenodd" clip-rule="evenodd" d="M238.887 262.66L238.373 261.811L239.972 260.846L239.491 260.047C238.773 258.859 238.881 257.143 240.041 256.443L241.325 255.668L242.289 257.267L240.607 258.283L241.571 259.882C243.702 258.596 241.123 260.152 243.255 258.866L244.218 260.465C241.547 262.076 243.856 260.684 241.184 262.295L239.338 263.409L238.887 262.66" fill="#2B57AE"/>
<path fill-rule="evenodd" clip-rule="evenodd" d="M11.8327 285.479H19.2887C24.8335 285.479 30.4731 281.444 30.4731 276.151C30.4731 269.516 30.4731 262.882 30.4731 256.246H41.5391V248.773L34.2015 248.79C28.6567 248.79 23.0171 252.825 23.0171 258.118C23.0171 264.753 23.0171 271.388 23.0171 278.023H8.10431V256.153H0.690588L0.647461 268.237V276.158C0.647461 281.569 6.29042 285.479 11.8327 285.479" fill="#2B57AE"/>
<path fill-rule="evenodd" clip-rule="evenodd" d="M45.3862 286.047C49.4751 284.741 52.8422 281.403 52.8422 277.313V249.359H45.3862C45.3862 259.301 45.3862 269.242 45.3862 279.185V286.047Z" fill="#2B57AE"/>
<path fill-rule="evenodd" clip-rule="evenodd" d="M93.8519 274.836H96.5659C99.7892 274.836 103.046 273.514 105.206 271.343L105.211 274.858C109.579 274.858 115.124 274.836 119.95 274.836C125.494 274.836 131.134 270.802 131.134 265.508C131.134 259.297 131.134 253.086 131.134 246.875C131.134 241.464 125.491 237.555 119.95 237.555C114.405 237.555 108.765 241.589 108.765 246.882V254.324C108.765 259.617 114.405 263.651 119.95 263.651C120.608 263.651 121.007 263.651 121.919 263.651V256.195H116.222C116.222 251.829 116.222 250.376 116.222 245.011H123.678V252.796V265.226V267.38H105.037V265.516V256.195H97.5803V265.516V267.38H90.1243C90.1243 257.438 90.1243 247.496 90.1243 237.555H82.6675V265.508C82.6675 270.802 88.3079 274.836 93.8519 274.836" fill="#2B57AE"/>
<path fill-rule="evenodd" clip-rule="evenodd" d="M259.671 285.479C263.76 284.172 267.127 280.834 267.127 276.745V248.79H259.671C259.671 258.732 259.671 268.674 259.671 278.616V285.479Z" fill="#2B57AE"/>
<path fill-rule="evenodd" clip-rule="evenodd" d="M237.303 274.834H244.759C250.304 274.834 255.944 270.8 255.944 265.507V237.553H248.487C248.487 247.495 248.487 257.436 248.487 267.378H233.575V256.194H226.119V265.514C226.119 270.924 231.762 274.834 237.303 274.834" fill="#2B57AE"/>
<path fill-rule="evenodd" clip-rule="evenodd" d="M223.603 139.18C221.957 142.807 219.923 146.176 217.497 149.286L206.808 142.969C201.823 149.192 195.435 155.571 189.046 160.234L195.181 171.392C191.932 173.946 188.423 175.982 184.654 177.497L178.549 166.549C170.68 170.043 163.122 171.82 154.941 173.287L154.547 185.708C150.758 186.143 146.969 186.263 143.179 185.92L142.758 173.287C134.296 172.796 126.146 171.368 118.307 167.603L112.23 178.761C108.721 177.493 105.212 175.804 101.704 173.498L108.02 162.128C100.969 157.902 94.5416 152.428 89.6744 145.707L78.5442 152.444C76.0729 149.581 73.9198 146.401 72.2278 142.759L83.1761 136.443C78.8699 128.716 76.2802 120.521 74.9376 111.39L61.7016 111.6L61.0696 100.021L73.9131 100.231C74.4486 90.9209 76.2337 82.2348 79.7328 73.3914L69.0704 67.1773C70.1339 63.7374 71.9706 60.2992 74.3335 56.861L85.2811 63.5987C90.0078 55.3246 96.4443 48.8161 104.652 43.1757L97.9138 32.2282C100.966 29.8212 104.602 27.8035 108.434 26.1757L115.178 36.8602C123.88 32.9845 132.582 30.9803 141.284 29.9126V17.2798C145.251 16.9152 149.429 16.867 153.916 17.2798L153.901 29.9126C163.116 30.9101 171.546 33.2256 179.601 37.2806L185.706 26.5438C189.212 27.7646 192.486 29.63 195.602 32.0175L189.497 43.1757C196.968 48.7138 203.061 55.284 208.234 62.5454L219.198 56.6503C221.317 59.8787 223.315 63.1063 224.655 66.3355L213.708 72.6511C217.146 80.7061 219.026 88.9167 219.814 97.283L232.446 97.4937C232.67 101.423 232.579 105.354 232.024 109.284L219.393 109.495C218.501 117.144 215.893 125.417 212.974 132.756L223.603 139.18ZM238.518 118.6C240.203 108.769 240.414 98.1993 239.153 88.0005L226.152 88.1587C225.48 84.8457 224.648 81.3694 223.457 77.536L234.872 71.1943C231.194 62.0784 226.226 52.7789 219.969 44.3999L208.871 51.218C206.46 48.0513 203.659 45.1444 200.468 42.4981L206.969 31.5581C199.486 24.6698 190.278 20.2122 180.967 16.021L174.466 27.1182C170.836 25.6969 167.1 24.5903 163.209 23.9473V10.8348C153.194 9.25615 143.362 9.42115 132.61 10.7883L133.085 23.3136C128.526 23.9558 124.16 25.1783 119.926 26.801L113.135 15.6529C103.853 19.4905 95.3098 24.8001 86.9486 31.3999L93.8165 42.2518C90.3352 45.1571 87.2404 48.4515 84.4122 52.0107L73.0222 45.6681C66.9156 53.7569 61.9139 63.1359 58.5688 72.1452L69.9841 78.646C68.6483 82.6096 67.8022 86.5741 67.4469 90.5368H54.4723C53.6136 100.604 53.5679 110.302 55.5561 120.186L69.0332 120.206C69.9215 124.274 71.1364 128.177 72.6796 131.917L61.4486 137.942C65.7701 147.372 71.5645 155.88 77.9113 163.468L89.1677 156.651C91.2379 159.202 93.8876 161.56 96.9375 163.785L90.8047 174.724C98.8513 180.771 107.512 185.466 117.216 189.118L123.256 177.421C126.57 178.56 130.079 179.312 133.72 179.798L134.089 192.641C143.756 194.413 153.983 194.161 164.16 192.007L164.319 179.006C167.653 178.434 170.824 177.536 173.832 176.311L180.859 187.568C190.367 183.83 198.392 178.957 206.651 172.03L199.675 161.565C202.624 159.177 205.307 156.522 207.602 153.481L218.752 160.773C224.597 153.473 230.26 143.595 234.079 134.454L222.505 128.27C223.837 124.941 224.841 121.612 225.518 118.282L238.518 118.6Z" fill="#2B57AE"/>
</svg>
